<?xml version="1.0" encoding="UTF-8"?><svg xmlns="http://www.w3.org/2000/svg" xmlns:xlink="http://www.w3.org/1999/xlink" stroke-dasharray="none" shape-rendering="auto" font-family="'Dialog'" width="468" text-rendering="auto" fill-opacity="1" contentScriptType="text/ecmascript" color-interpolation="auto" color-rendering="auto" preserveAspectRatio="xMidYMid meet" font-size="12" viewBox="0 0 468 198" fill="black" stroke="black" image-rendering="auto" stroke-miterlimit="10" zoomAndPan="magnify" version="1.0" stroke-linecap="square" stroke-linejoin="miter" contentStyleType="text/css" font-style="normal" height="198" stroke-width="1" stroke-dashoffset="0" font-weight="normal" stroke-opacity="1">
<!--Generated by the Batik Graphics2D SVG Generator-->
<defs id="genericDefs"/>
<g>
<g fill="url(#linearGradient1)" font-family="'Segoe UI'" stroke-linejoin="round" stroke="url(#linearGradient1)" stroke-width="0" stroke-miterlimit="0">
<rect x="10" y="10" clip-path="url(#clipPath1)" width="448" height="178" stroke="none"/>
<text x="165" y="25" clip-path="url(#clipPath2)" fill="black" font-family="'Tahoma'" stroke="none" xml:space="preserve">IntersectionStateMachine</text>
<rect x="11" y="29" clip-path="url(#clipPath3)" fill="white" width="448" height="159" stroke="none"/>
<rect x="71" y="42" clip-path="url(#clipPath4)" fill="url(#linearGradient2)" width="106" height="52" stroke="none"/>
<text x="87" y="58" clip-path="url(#clipPath5)" fill="black" stroke="none" xml:space="preserve">HighwayOpen</text>
<rect x="72" y="62" clip-path="url(#clipPath6)" fill="white" width="106" height="32" stroke="none"/>
</g>
<g stroke-width="1.1" font-family="'Segoe UI'" stroke-linecap="butt">
<line clip-path="url(#clipPath7)" fill="none" x1="71" x2="177" y1="61" y2="61"/>
<rect x="71" y="42" clip-path="url(#clipPath8)" fill="none" width="105" rx="10" ry="10" height="51"/>
<rect x="238" y="39" clip-path="url(#clipPath9)" fill="url(#linearGradient3)" width="200" height="55" stroke="none"/>
<text xml:space="preserve" x="256" y="55" clip-path="url(#clipPath10)" stroke="none">SwitchingHighwayToFarmroad</text>
<rect x="239" y="59" clip-path="url(#clipPath11)" fill="white" width="200" height="35" stroke="none"/>
<line clip-path="url(#clipPath12)" fill="none" x1="238" x2="438" y1="58" y2="58"/>
<rect x="238" y="39" clip-path="url(#clipPath13)" fill="none" width="199" rx="10" ry="10" height="54"/>
<rect x="21" y="126" clip-path="url(#clipPath14)" fill="url(#linearGradient4)" width="199" height="52" stroke="none"/>
<text xml:space="preserve" x="39" y="142" clip-path="url(#clipPath15)" stroke="none">SwitchingFarmroadToHighway</text>
<rect x="22" y="146" clip-path="url(#clipPath16)" fill="white" width="199" height="32" stroke="none"/>
<line clip-path="url(#clipPath17)" fill="none" x1="21" x2="220" y1="145" y2="145"/>
<rect x="21" y="126" clip-path="url(#clipPath18)" fill="none" width="198" rx="10" ry="10" height="51"/>
<rect x="334" y="130" clip-path="url(#clipPath19)" fill="url(#linearGradient5)" width="79" height="44" stroke="none"/>
<text xml:space="preserve" x="336" y="146" clip-path="url(#clipPath20)" stroke="none">FarmwayOpen</text>
<rect x="334" y="130" clip-path="url(#clipPath21)" fill="none" width="78" rx="10" ry="10" height="43"/>
<rect x="21" y="61" clip-path="url(#clipPath22)" fill="url(#linearGradient6)" width="20" opacity="0" height="20" stroke="none"/>
</g>
<svg xmlns:rdf="http://www.w3.org/1999/02/22-rdf-syntax-ns#" xmlns:svg="http://www.w3.org/2000/svg" xmlns:sodipodi="http://sodipodi.sourceforge.net/DTD/sodipodi-0.dtd" xmlns:dc="http://purl.org/dc/elements/1.1/" xmlns:inkscape="http://www.inkscape.org/namespaces/inkscape" xmlns:cc="http://creativecommons.org/ns#" contentScriptType="text/ecmascript" zoomAndPan="magnify" contentStyleType="text/css" id="svg2" sodipodi:docname="round_full.svg" style="" version="1.1" width="20" preserveAspectRatio="xMidYMid meet" inkscape:version="0.48.5 r10040" height="20" class="" x="21" y="61">
  <defs style="" id="defs4">
    <linearGradient xlink:type="simple" style="" xlink:actuate="onLoad" id="linearGradient3789" xlink:show="other">
      <stop id="stop3791" offset="0" style="stop-color:#000005;stop-opacity:1"/>
      <stop id="stop3793" offset="1" style="  stop-color:black;stop-opacity:0"/>
    </linearGradient>
    <inkscape:perspective inkscape:persp3d-origin="42.5 : 13.333333 : 1" style="" id="perspective3063" inkscape:vp_z="85 : 20 : 1" inkscape:vp_y="0 : 1000 : 0" inkscape:vp_x="0 : 20 : 1" sodipodi:type="inkscape:persp3d"/>
    <linearGradient xlink:type="simple" style="" xlink:actuate="onLoad" id="linearGradient3786" xlink:show="other">
      <stop id="stop3788" offset="0" style=" stop-color:black;stop-opacity:0"/>
      <stop id="stop3794" offset="1" style="stop-color:#919cd7;stop-opacity:1"/>
    </linearGradient>
  <linearGradient x1="10" x2="10" y1="10" gradientUnits="userSpaceOnUse" y2="188" xlink:type="simple" xlink:actuate="onLoad" id="linearGradient1" xlink:show="other" spreadMethod="pad">
<stop stop-opacity="1" stop-color="white" offset="0%"/>
<stop stop-opacity="1" stop-color="white" offset="100%"/>
</linearGradient>
<linearGradient x1="71" x2="71" y1="42" gradientUnits="userSpaceOnUse" y2="94" xlink:type="simple" xlink:actuate="onLoad" id="linearGradient2" xlink:show="other" spreadMethod="pad">
<stop stop-opacity="1" stop-color="white" offset="0%"/>
<stop stop-opacity="1" stop-color="white" offset="100%"/>
</linearGradient>
<linearGradient x1="238" x2="238" y1="39" gradientUnits="userSpaceOnUse" y2="94" xlink:type="simple" xlink:actuate="onLoad" id="linearGradient3" xlink:show="other" spreadMethod="pad">
<stop stop-opacity="1" stop-color="white" offset="0%"/>
<stop stop-opacity="1" stop-color="white" offset="100%"/>
</linearGradient>
<linearGradient x1="21" x2="21" y1="126" gradientUnits="userSpaceOnUse" y2="178" xlink:type="simple" xlink:actuate="onLoad" id="linearGradient4" xlink:show="other" spreadMethod="pad">
<stop stop-opacity="1" stop-color="white" offset="0%"/>
<stop stop-opacity="1" stop-color="white" offset="100%"/>
</linearGradient>
<linearGradient x1="334" x2="334" y1="130" gradientUnits="userSpaceOnUse" y2="174" xlink:type="simple" xlink:actuate="onLoad" id="linearGradient5" xlink:show="other" spreadMethod="pad">
<stop stop-opacity="1" stop-color="white" offset="0%"/>
<stop stop-opacity="1" stop-color="white" offset="100%"/>
</linearGradient>
<linearGradient x1="21" x2="21" y1="61" gradientUnits="userSpaceOnUse" y2="81" xlink:type="simple" xlink:actuate="onLoad" id="linearGradient6" xlink:show="other" spreadMethod="pad">
<stop stop-opacity="1" stop-color="black" offset="0%"/>
<stop stop-opacity="1" stop-color="black" offset="100%"/>
</linearGradient>
<clipPath clipPathUnits="userSpaceOnUse" id="clipPath1">
<path d="M20 10 C14.4771 10 10 14.4772 10 20 L10 20 L10 177 C10 182.5228 14.4771 187 20 187 C20 187 20 187 20 187 L20 187 L447 187 C452.5228 187 457 182.5228 457 177 L457 177 L457 20 C457 20 457 20 457 20 C457 14.4771 452.5228 10 447 10 C447 10 447 10 447 10 L20 10 L20 10 Z"/>
</clipPath>
<clipPath clipPathUnits="userSpaceOnUse" id="clipPath2">
<path d="M164 12 L306 12 L306 28 L164 28 L164 12 Z"/>
</clipPath>
<clipPath clipPathUnits="userSpaceOnUse" id="clipPath3">
<path d="M10 28 L459 28 L459 189 L10 189 L10 28 Z"/>
</clipPath>
<clipPath clipPathUnits="userSpaceOnUse" id="clipPath4">
<path d="M166 42 C166 42 166 42 166 42 L81 42 C75.4771 42 71 46.4772 71 52 L71 83 C71 88.5229 75.4772 93 81 93 L166 93 C171.5228 93 176 88.5228 176 83 L176 83 L176 52 C176 52 176 52 176 52 C176 46.4771 171.5228 42 166 42 Z"/>
</clipPath>
<clipPath clipPathUnits="userSpaceOnUse" id="clipPath5">
<path d="M86 44 L164 44 L164 61 L86 61 L86 44 Z"/>
</clipPath>
<clipPath clipPathUnits="userSpaceOnUse" id="clipPath6">
<path d="M71 61 L178 61 L178 95 L71 95 L71 61 Z"/>
</clipPath>
<clipPath clipPathUnits="userSpaceOnUse" id="clipPath7">
<path d="M71 60 L178 60 L178 95 L71 95 L71 60 Z"/>
</clipPath>
<clipPath clipPathUnits="userSpaceOnUse" id="clipPath8">
<path d="M70 41 L178 41 L178 95 L70 95 L70 41 Z"/>
</clipPath>
<clipPath clipPathUnits="userSpaceOnUse" id="clipPath9">
<path d="M427 39 C427 39 427 39 427 39 L248 39 C242.4771 39 238 43.4772 238 49 L238 49 L238 83 C238 88.5229 242.4772 93 248 93 L427 93 C432.5228 93 437 88.5228 437 83 L437 83 L437 49 C437 49 437 49 437 49 C437 43.4771 432.5228 39 427 39 Z"/>
</clipPath>
<clipPath clipPathUnits="userSpaceOnUse" id="clipPath10">
<path d="M255 41 L422 41 L422 58 L255 58 L255 41 Z"/>
</clipPath>
<clipPath clipPathUnits="userSpaceOnUse" id="clipPath11">
<path d="M238 58 L439 58 L439 95 L238 95 L238 58 Z"/>
</clipPath>
<clipPath clipPathUnits="userSpaceOnUse" id="clipPath12">
<path d="M238 57 L439 57 L439 95 L238 95 L238 57 Z"/>
</clipPath>
<clipPath clipPathUnits="userSpaceOnUse" id="clipPath13">
<path d="M237 38 L439 38 L439 95 L237 95 L237 38 Z"/>
</clipPath>
<clipPath clipPathUnits="userSpaceOnUse" id="clipPath14">
<path d="M31 126 C25.4771 126 21 130.4772 21 136 L21 167 C21 172.5228 25.4771 177 31 177 C31 177 31 177 31 177 L31 177 L209 177 C214.5228 177 219 172.5228 219 167 L219 167 L219 136 C219 130.4772 214.5228 126 209 126 C209 126 209 126 209 126 L31 126 L31 126 Z"/>
</clipPath>
<clipPath clipPathUnits="userSpaceOnUse" id="clipPath15">
<path d="M38 128 L204 128 L204 145 L38 145 L38 128 Z"/>
</clipPath>
<clipPath clipPathUnits="userSpaceOnUse" id="clipPath16">
<path d="M21 145 L221 145 L221 179 L21 179 L21 145 Z"/>
</clipPath>
<clipPath clipPathUnits="userSpaceOnUse" id="clipPath17">
<path d="M21 144 L221 144 L221 179 L21 179 L21 144 Z"/>
</clipPath>
<clipPath clipPathUnits="userSpaceOnUse" id="clipPath18">
<path d="M20 125 L221 125 L221 179 L20 179 L20 125 Z"/>
</clipPath>
<clipPath clipPathUnits="userSpaceOnUse" id="clipPath19">
<path d="M402 130 C402 130 402 130 402 130 L344 130 C338.4771 130 334 134.4772 334 140 L334 140 L334 163 C334 168.5228 338.4771 173 344 173 C344 173 344 173 344 173 L344 173 L402 173 C407.5228 173 412 168.5228 412 163 L412 163 L412 140 C412 134.4772 407.5228 130 402 130 Z"/>
</clipPath>
<clipPath clipPathUnits="userSpaceOnUse" id="clipPath20">
<path d="M335 132 L414 132 L414 149 L335 149 L335 132 Z"/>
</clipPath>
<clipPath clipPathUnits="userSpaceOnUse" id="clipPath21">
<path d="M333 129 L414 129 L414 175 L333 175 L333 129 Z"/>
</clipPath>
<clipPath clipPathUnits="userSpaceOnUse" id="clipPath22">
<path d="M21 61 L21 80 L40 80 L40 61 Z"/>
</clipPath>
<clipPath clipPathUnits="userSpaceOnUse" id="clipPath23">
<path d="M23 36 L64 36 L64 53 L23 53 L23 36 Z"/>
</clipPath>
<clipPath clipPathUnits="userSpaceOnUse" id="clipPath24">
<path d="M10 27 L459 27 L459 189 L10 189 L10 27 Z"/>
</clipPath>
<clipPath clipPathUnits="userSpaceOnUse" id="clipPath25">
<path d="M9 9 L459 9 L459 189 L9 189 L9 9 Z"/>
</clipPath>
<clipPath clipPathUnits="userSpaceOnUse" id="clipPath26">
<path d="M-1 -1 L469 -1 L469 199 L-1 199 L-1 -1 Z"/>
</clipPath>
<clipPath clipPathUnits="userSpaceOnUse" id="clipPath27">
<path d="M54 63 L60 63 L60 80 L54 80 L54 63 Z"/>
</clipPath>
<clipPath clipPathUnits="userSpaceOnUse" id="clipPath28">
<path d="M55 65 L73 65 L73 78 L55 78 L55 65 Z"/>
</clipPath>
<clipPath clipPathUnits="userSpaceOnUse" id="clipPath29">
<path d="M373 104 L379 104 L379 121 L373 121 L373 104 Z"/>
</clipPath>
<clipPath clipPathUnits="userSpaceOnUse" id="clipPath30">
<path d="M368 114 L381 114 L381 132 L368 132 L368 114 Z"/>
</clipPath>
<clipPath clipPathUnits="userSpaceOnUse" id="clipPath31">
<path d="M118 102 L124 102 L124 119 L118 119 L118 102 Z"/>
</clipPath>
<clipPath clipPathUnits="userSpaceOnUse" id="clipPath32">
<path d="M114 93 L127 93 L127 111 L114 111 L114 93 Z"/>
</clipPath>
<clipPath clipPathUnits="userSpaceOnUse" id="clipPath33">
<path d="M207 58 L213 58 L213 75 L207 75 L207 58 Z"/>
</clipPath>
<clipPath clipPathUnits="userSpaceOnUse" id="clipPath34">
<path d="M222 60 L240 60 L240 73 L222 73 L222 60 Z"/>
</clipPath>
<clipPath clipPathUnits="userSpaceOnUse" id="clipPath35">
<path d="M276 146 L282 146 L282 163 L276 163 L276 146 Z"/>
</clipPath>
<clipPath clipPathUnits="userSpaceOnUse" id="clipPath36">
<path d="M219 148 L237 148 L237 161 L219 161 L219 148 Z"/>
</clipPath>
</defs>
  <sodipodi:namedview bordercolor="#666666" inkscape:window-height="1005" inkscape:zoom="5.6" id="base" inkscape:current-layer="layer1" style="" inkscape:window-y="-9" inkscape:cy="21.696429" inkscape:window-x="-9" inkscape:cx="-0.034771143" showgrid="false" inkscape:pageopacity="0.0" inkscape:document-units="px" units="px" inkscape:pageshadow="2" inkscape:window-width="1920" pagecolor="#ffffff" borderopacity="1.0" inkscape:window-maximized="1"/>
  <metadata style="" id="metadata7">
    <rdf:RDF style="">
      <cc:Work rdf:about="" style="">
        <dc:format style="">image/svg+xml</dc:format>
        <dc:type style="" rdf:resource="http://purl.org/dc/dcmitype/StillImage"/>
        <dc:title style=""/>
      </cc:Work>
    </rdf:RDF>
  </metadata>
  <g inkscape:groupmode="layer" id="layer1" style="" transform="translate(0,-1032.3617)" inkscape:label="Calque 1">
    <path sodipodi:arg1="0.56068699" inkscape:flatsided="false" inkscape:randomized="0" sodipodi:type="star" d="M 17.5,14.821429 L 16.411844,16.226801 L 15.070423,17.392882 L 13.527285,18.274857 L 11.841734,18.838835 L 10.078543,19.063141 L 8.3054712,18.939156 L 6.5906569,18.471644 L 4.9999996,17.678572 L 3.5946269,16.590416 L 2.4285468,15.248994 L 1.5465709,13.705857 L 0.98259317,12.020305 L 0.75828691,10.257114 L 0.8822721,8.4840429 L 1.3497841,6.7692286 L 2.1428565,5.1785713 L 3.2310123,3.7731986 L 4.5724339,2.6071185 L 6.1155716,1.7251426 L 7.8011231,1.1611649 L 9.564314,0.93685861 L 11.337385,1.0608438 L 13.0522,1.5283558 L 14.642857,2.3214282 L 16.04823,3.409584 L 17.21431,4.7510056 L 18.096286,6.2941433 L 18.660263,7.9796948 L 18.88457,9.7428857 L 18.760584,11.515957 L 18.293073,13.230771 z" id="PapyrusPath" style="stroke-opacity:1; fill:black;fill-opacity:1;stroke:none" inkscape:rounded="0" transform="translate(0,1032.3617)" sodipodi:sides="16" sodipodi:r1="9.0667877" sodipodi:cx="9.8214283" sodipodi:cy="10" sodipodi:arg2="0.75703654" sodipodi:r2="9.0667877"/>
  </g>
</svg>
<g stroke-width="1.1" font-family="'Segoe UI'" stroke-linecap="butt">
<text xml:space="preserve" x="24" y="50" clip-path="url(#clipPath23)" stroke="none"> Initial1</text>
<line clip-path="url(#clipPath24)" fill="none" x1="11" x2="459" y1="28" y2="28" stroke="rgb(176,176,176)"/>
<rect x="10" y="10" clip-path="url(#clipPath25)" fill="none" width="447" rx="10" ry="10" height="177" stroke="rgb(176,176,176)"/>
<line clip-path="url(#clipPath26)" fill="none" text-rendering="optimizeLegibility" x1="39" x2="71" y1="71" y2="71"/>
<text x="55" y="77" clip-path="url(#clipPath27)" text-rendering="optimizeLegibility" stroke="none" xml:space="preserve"> </text>
<line clip-path="url(#clipPath28)" fill="none" text-rendering="optimizeLegibility" x1="56" x2="71" y1="76" y2="71"/>
<line clip-path="url(#clipPath28)" fill="none" text-rendering="optimizeLegibility" x1="71" x2="56" y1="71" y2="66"/>
<line clip-path="url(#clipPath26)" fill="none" text-rendering="optimizeLegibility" x1="374" x2="374" y1="94" y2="130"/>
<text x="374" y="118" clip-path="url(#clipPath29)" text-rendering="optimizeLegibility" stroke="none" xml:space="preserve"> </text>
<line clip-path="url(#clipPath30)" fill="none" text-rendering="optimizeLegibility" x1="369" x2="374" y1="115" y2="130"/>
<line clip-path="url(#clipPath30)" fill="none" text-rendering="optimizeLegibility" x1="374" x2="379" y1="130" y2="115"/>
<line clip-path="url(#clipPath26)" fill="none" text-rendering="optimizeLegibility" x1="119" x2="120" y1="126" y2="94"/>
<text x="119" y="116" clip-path="url(#clipPath31)" text-rendering="optimizeLegibility" stroke="none" xml:space="preserve"> </text>
<line clip-path="url(#clipPath32)" fill="none" text-rendering="optimizeLegibility" x1="125" x2="120" y1="109" y2="94"/>
<line clip-path="url(#clipPath32)" fill="none" text-rendering="optimizeLegibility" x1="120" x2="115" y1="94" y2="109"/>
<line clip-path="url(#clipPath26)" fill="none" text-rendering="optimizeLegibility" x1="177" x2="238" y1="66" y2="66"/>
<text x="208" y="72" clip-path="url(#clipPath33)" text-rendering="optimizeLegibility" stroke="none" xml:space="preserve"> </text>
<line clip-path="url(#clipPath34)" fill="none" text-rendering="optimizeLegibility" x1="223" x2="238" y1="71" y2="66"/>
<line clip-path="url(#clipPath34)" fill="none" text-rendering="optimizeLegibility" x1="238" x2="223" y1="66" y2="61"/>
<line clip-path="url(#clipPath26)" fill="none" text-rendering="optimizeLegibility" x1="334" x2="220" y1="154" y2="154"/>
<text x="277" y="160" clip-path="url(#clipPath35)" text-rendering="optimizeLegibility" stroke="none" xml:space="preserve"> </text>
<line clip-path="url(#clipPath36)" fill="none" text-rendering="optimizeLegibility" x1="235" x2="220" y1="149" y2="154"/>
<line clip-path="url(#clipPath36)" fill="none" text-rendering="optimizeLegibility" x1="220" x2="235" y1="154" y2="159"/>
<line clip-path="url(#clipPath26)" fill="none" text-rendering="optimizeLegibility" x1="39" x2="71" y1="71" y2="71"/>
<text x="55" y="77" clip-path="url(#clipPath27)" text-rendering="optimizeLegibility" stroke="none" xml:space="preserve"> </text>
<line clip-path="url(#clipPath28)" fill="none" text-rendering="optimizeLegibility" x1="56" x2="71" y1="76" y2="71"/>
<line clip-path="url(#clipPath28)" fill="none" text-rendering="optimizeLegibility" x1="71" x2="56" y1="71" y2="66"/>
<line clip-path="url(#clipPath26)" fill="none" text-rendering="optimizeLegibility" x1="177" x2="238" y1="66" y2="66"/>
<text x="208" y="72" clip-path="url(#clipPath33)" text-rendering="optimizeLegibility" stroke="none" xml:space="preserve"> </text>
<line clip-path="url(#clipPath34)" fill="none" text-rendering="optimizeLegibility" x1="223" x2="238" y1="71" y2="66"/>
<line clip-path="url(#clipPath34)" fill="none" text-rendering="optimizeLegibility" x1="238" x2="223" y1="66" y2="61"/>
<line clip-path="url(#clipPath26)" fill="none" text-rendering="optimizeLegibility" x1="374" x2="374" y1="94" y2="130"/>
<text x="374" y="118" clip-path="url(#clipPath29)" text-rendering="optimizeLegibility" stroke="none" xml:space="preserve"> </text>
<line clip-path="url(#clipPath30)" fill="none" text-rendering="optimizeLegibility" x1="369" x2="374" y1="115" y2="130"/>
<line clip-path="url(#clipPath30)" fill="none" text-rendering="optimizeLegibility" x1="374" x2="379" y1="130" y2="115"/>
<line clip-path="url(#clipPath26)" fill="none" text-rendering="optimizeLegibility" x1="334" x2="220" y1="154" y2="154"/>
<text x="277" y="160" clip-path="url(#clipPath35)" text-rendering="optimizeLegibility" stroke="none" xml:space="preserve"> </text>
<line clip-path="url(#clipPath36)" fill="none" text-rendering="optimizeLegibility" x1="235" x2="220" y1="149" y2="154"/>
<line clip-path="url(#clipPath36)" fill="none" text-rendering="optimizeLegibility" x1="220" x2="235" y1="154" y2="159"/>
<line clip-path="url(#clipPath26)" fill="none" text-rendering="optimizeLegibility" x1="119" x2="120" y1="126" y2="94"/>
<text x="119" y="116" clip-path="url(#clipPath31)" text-rendering="optimizeLegibility" stroke="none" xml:space="preserve"> </text>
<line clip-path="url(#clipPath32)" fill="none" text-rendering="optimizeLegibility" x1="125" x2="120" y1="109" y2="94"/>
<line clip-path="url(#clipPath32)" fill="none" text-rendering="optimizeLegibility" x1="120" x2="115" y1="94" y2="109"/>
</g>
</g>
</svg>
