<?xml version="1.0" encoding="UTF-8"?><svg xmlns="http://www.w3.org/2000/svg" xmlns:xlink="http://www.w3.org/1999/xlink" stroke-dasharray="none" shape-rendering="auto" font-family="'Dialog'" width="402" text-rendering="auto" fill-opacity="1" contentScriptType="text/ecmascript" color-interpolation="auto" color-rendering="auto" preserveAspectRatio="xMidYMid meet" font-size="12" viewBox="0 0 402 98" fill="black" stroke="black" image-rendering="auto" stroke-miterlimit="10" zoomAndPan="magnify" version="1.0" stroke-linecap="square" stroke-linejoin="miter" contentStyleType="text/css" font-style="normal" height="98" stroke-width="1" stroke-dashoffset="0" font-weight="normal" stroke-opacity="1">
<!--Generated by the Batik Graphics2D SVG Generator-->
<defs id="genericDefs"/>
<g>
<defs id="defs1">
<linearGradient x1="292" x2="292" y1="25" gradientUnits="userSpaceOnUse" y2="74" xlink:type="simple" xlink:actuate="onLoad" id="linearGradient1" xlink:show="other" spreadMethod="pad">
<stop stop-opacity="1" stop-color="white" offset="0%"/>
<stop stop-opacity="1" stop-color="white" offset="100%"/>
</linearGradient>
<linearGradient x1="10" x2="10" y1="25" gradientUnits="userSpaceOnUse" y2="75" xlink:type="simple" xlink:actuate="onLoad" id="linearGradient2" xlink:show="other" spreadMethod="pad">
<stop stop-opacity="1" stop-color="white" offset="0%"/>
<stop stop-opacity="1" stop-color="white" offset="100%"/>
</linearGradient>
<clipPath clipPathUnits="userSpaceOnUse" id="clipPath1">
<path d="M292 25 L292 73 L391 73 L391 25 Z"/>
</clipPath>
<clipPath clipPathUnits="userSpaceOnUse" id="clipPath2">
<path d="M309 41 L376 41 L376 58 L309 58 L309 41 Z"/>
</clipPath>
<clipPath clipPathUnits="userSpaceOnUse" id="clipPath3">
<path d="M291 24 L393 24 L393 75 L291 75 L291 24 Z"/>
</clipPath>
<clipPath clipPathUnits="userSpaceOnUse" id="clipPath4">
<path d="M10 25 L10 74 L109 74 L109 25 Z"/>
</clipPath>
<clipPath clipPathUnits="userSpaceOnUse" id="clipPath5">
<path d="M33 41 L88 41 L88 58 L33 58 L33 41 Z"/>
</clipPath>
<clipPath clipPathUnits="userSpaceOnUse" id="clipPath6">
<path d="M9 24 L111 24 L111 76 L9 76 L9 24 Z"/>
</clipPath>
<clipPath clipPathUnits="userSpaceOnUse" id="clipPath7">
<path d="M-1 -1 L403 -1 L403 99 L-1 99 L-1 -1 Z"/>
</clipPath>
<clipPath clipPathUnits="userSpaceOnUse" id="clipPath8">
<path d="M197 55 L276 55 L276 72 L197 72 L197 55 Z"/>
</clipPath>
<clipPath clipPathUnits="userSpaceOnUse" id="clipPath9">
<path d="M116 22 L184 22 L184 39 L116 39 L116 22 Z"/>
</clipPath>
<clipPath clipPathUnits="userSpaceOnUse" id="clipPath10">
<path d="M251 41 L294 41 L294 56 L251 56 L251 41 Z"/>
</clipPath>
<clipPath clipPathUnits="userSpaceOnUse" id="clipPath11">
<path d="M109 41 L130 41 L130 56 L109 56 L109 41 Z"/>
</clipPath>
</defs>
<g fill="url(#linearGradient1)" font-family="'Segoe UI'" stroke-linejoin="round" stroke="url(#linearGradient1)" stroke-width="0" stroke-miterlimit="0">
<rect x="292" y="25" clip-path="url(#clipPath1)" width="100" height="49" stroke="none"/>
<text x="310" y="55" clip-path="url(#clipPath2)" fill="black" stroke="none" xml:space="preserve">Component</text>
</g>
<g stroke-width="1.1" font-family="'Segoe UI'" stroke-linecap="butt">
<rect x="292" y="25" clip-path="url(#clipPath3)" fill="none" width="99" rx="0" ry="0" height="48"/>
<rect x="10" y="25" clip-path="url(#clipPath4)" fill="url(#linearGradient2)" width="100" height="50" stroke="none"/>
<text xml:space="preserve" x="34" y="55" clip-path="url(#clipPath5)" stroke="none">Delegatee</text>
<rect x="10" y="25" clip-path="url(#clipPath6)" fill="none" width="99" rx="0" ry="0" height="49"/>
<line clip-path="url(#clipPath7)" fill="none" text-rendering="optimizeLegibility" x1="292" x2="110" y1="48" y2="48"/>
<text x="198" y="69" clip-path="url(#clipPath8)" text-rendering="optimizeLegibility" stroke="none" xml:space="preserve"> + component</text>
<text x="117" y="36" clip-path="url(#clipPath9)" text-rendering="optimizeLegibility" stroke="none" xml:space="preserve"> + delegatee</text>
<polygon text-rendering="optimizeLegibility" clip-path="url(#clipPath10)" points=" 292 49 290 50 288 50 286 49 286 48 277 53 268 48 252 54 268 48 252 42 268 48 277 44 286 48 286 47 288 46 290 46 292 47" stroke="none"/>
<polygon text-rendering="optimizeLegibility" fill="none" clip-path="url(#clipPath10)" points=" 292 49 290 50 288 50 286 49 286 48 277 53 268 48 252 54 268 48 252 42 268 48 277 44 286 48 286 47 288 46 290 46 292 47"/>
<polygon text-rendering="optimizeLegibility" clip-path="url(#clipPath11)" points=" 110 47 112 45 114 45 116 47 116 48 128 42 116 48 128 54 116 48 116 49 114 51 112 51 110 49" stroke="none"/>
<polygon text-rendering="optimizeLegibility" fill="none" clip-path="url(#clipPath11)" points=" 110 47 112 45 114 45 116 47 116 48 128 42 116 48 128 54 116 48 116 49 114 51 112 51 110 49"/>
</g>
</g>
</svg>
