<?xml version="1.0" encoding="UTF-8"?><svg xmlns="http://www.w3.org/2000/svg" xmlns:xlink="http://www.w3.org/1999/xlink" stroke-dasharray="none" shape-rendering="auto" font-family="'Dialog'" width="524" text-rendering="auto" fill-opacity="1" contentScriptType="text/ecmascript" color-interpolation="auto" color-rendering="auto" preserveAspectRatio="xMidYMid meet" font-size="12" viewBox="0 0 524 240" fill="black" stroke="black" image-rendering="auto" stroke-miterlimit="10" zoomAndPan="magnify" version="1.0" stroke-linecap="square" stroke-linejoin="miter" contentStyleType="text/css" font-style="normal" height="240" stroke-width="1" stroke-dashoffset="0" font-weight="normal" stroke-opacity="1">
<!--Generated by the Batik Graphics2D SVG Generator-->
<defs id="genericDefs"/>
<g>
<g stroke-miterlimit="0" stroke-width="0" font-family="'Segoe UI'" stroke-linejoin="round">
<rect x="15" y="15" clip-path="url(#clipPath1)" width="504" rx="10" opacity="0.502" ry="10" height="220" stroke="none"/>
<rect x="10" y="10" clip-path="url(#clipPath2)" fill="url(#linearGradient1)" width="504" height="220" stroke="none"/>
<text x="217" font-size="16" y="31" clip-path="url(#clipPath3)" stroke="none" xml:space="preserve">FIFOMachine</text>
<rect x="11" y="36" clip-path="url(#clipPath4)" fill="white" width="504" height="194" stroke="none"/>
<rect x="32" y="39" clip-path="url(#clipPath5)" fill="url(#linearGradient2)" width="20" opacity="0" height="20" stroke="none"/>
</g>
<svg xmlns:rdf="http://www.w3.org/1999/02/22-rdf-syntax-ns#" xmlns:svg="http://www.w3.org/2000/svg" xmlns:sodipodi="http://sodipodi.sourceforge.net/DTD/sodipodi-0.dtd" xmlns:dc="http://purl.org/dc/elements/1.1/" xmlns:inkscape="http://www.inkscape.org/namespaces/inkscape" xmlns:cc="http://creativecommons.org/ns#" contentScriptType="text/ecmascript" zoomAndPan="magnify" contentStyleType="text/css" id="svg2" sodipodi:docname="round_full.svg" style="" version="1.1" width="20" preserveAspectRatio="xMidYMid meet" inkscape:version="0.48.5 r10040" height="20" class="" x="32" y="39">
  <defs style="" id="defs4">
    <linearGradient xlink:type="simple" style="" xlink:actuate="onLoad" id="linearGradient3789" xlink:show="other">
      <stop id="stop3791" offset="0" style="stop-color:#000005;stop-opacity:1"/>
      <stop id="stop3793" offset="1" style="  stop-color:black;stop-opacity:0"/>
    </linearGradient>
    <inkscape:perspective inkscape:persp3d-origin="42.5 : 13.333333 : 1" style="" id="perspective3063" inkscape:vp_z="85 : 20 : 1" inkscape:vp_y="0 : 1000 : 0" inkscape:vp_x="0 : 20 : 1" sodipodi:type="inkscape:persp3d"/>
    <linearGradient xlink:type="simple" style="" xlink:actuate="onLoad" id="linearGradient3786" xlink:show="other">
      <stop id="stop3788" offset="0" style=" stop-color:black;stop-opacity:0"/>
      <stop id="stop3794" offset="1" style="stop-color:#919cd7;stop-opacity:1"/>
    </linearGradient>
  <linearGradient x1="10" x2="10" y1="10" gradientUnits="userSpaceOnUse" y2="230" xlink:type="simple" xlink:actuate="onLoad" id="linearGradient1" xlink:show="other" spreadMethod="pad">
<stop stop-opacity="1" stop-color="white" offset="0%"/>
<stop stop-opacity="1" stop-color="white" offset="100%"/>
</linearGradient>
<linearGradient x1="32" x2="32" y1="39" gradientUnits="userSpaceOnUse" y2="59" xlink:type="simple" xlink:actuate="onLoad" id="linearGradient2" xlink:show="other" spreadMethod="pad">
<stop stop-opacity="1" stop-color="black" offset="0%"/>
<stop stop-opacity="1" stop-color="black" offset="100%"/>
</linearGradient>
<linearGradient x1="18" x2="18" y1="76" gradientUnits="userSpaceOnUse" y2="113" xlink:type="simple" xlink:actuate="onLoad" id="linearGradient3" xlink:show="other" spreadMethod="pad">
<stop stop-opacity="1" stop-color="white" offset="0%"/>
<stop stop-opacity="1" stop-color="white" offset="100%"/>
</linearGradient>
<linearGradient x1="123" x2="123" y1="78" gradientUnits="userSpaceOnUse" y2="116" xlink:type="simple" xlink:actuate="onLoad" id="linearGradient4" xlink:show="other" spreadMethod="pad">
<stop stop-opacity="1" stop-color="white" offset="0%"/>
<stop stop-opacity="1" stop-color="white" offset="100%"/>
</linearGradient>
<linearGradient x1="264" x2="264" y1="87" gradientUnits="userSpaceOnUse" y2="107" xlink:type="simple" xlink:actuate="onLoad" id="linearGradient5" xlink:show="other" spreadMethod="pad">
<stop stop-opacity="1" stop-color="white" offset="0%"/>
<stop stop-opacity="1" stop-color="white" offset="100%"/>
</linearGradient>
<linearGradient x1="350" x2="350" y1="41" gradientUnits="userSpaceOnUse" y2="141" xlink:type="simple" xlink:actuate="onLoad" id="linearGradient6" xlink:show="other" spreadMethod="pad">
<stop stop-opacity="1" stop-color="white" offset="0%"/>
<stop stop-opacity="1" stop-color="white" offset="100%"/>
</linearGradient>
<linearGradient x1="384" x2="384" y1="82" gradientUnits="userSpaceOnUse" y2="122" xlink:type="simple" xlink:actuate="onLoad" id="linearGradient7" xlink:show="other" spreadMethod="pad">
<stop stop-opacity="1" stop-color="white" offset="0%"/>
<stop stop-opacity="1" stop-color="white" offset="100%"/>
</linearGradient>
<linearGradient x1="249" x2="249" y1="153" gradientUnits="userSpaceOnUse" y2="183" xlink:type="simple" xlink:actuate="onLoad" id="linearGradient8" xlink:show="other" spreadMethod="pad">
<stop stop-opacity="1" stop-color="white" offset="0%"/>
<stop stop-opacity="1" stop-color="white" offset="100%"/>
</linearGradient>
<clipPath clipPathUnits="userSpaceOnUse" id="clipPath1">
<path d="M7 7 L522 7 L522 238 L7 238 L7 7 Z"/>
</clipPath>
<clipPath clipPathUnits="userSpaceOnUse" id="clipPath2">
<path d="M20 10 C14.4771 10 10 14.4772 10 20 L10 20 L10 219 C10 224.5228 14.4771 229 19.9999 229 C20 229 20 229 20 229 L20 229 L503 229 C508.5228 229 512.9999 224.5228 512.9999 219 L513 219 L512.9999 20 C512.9999 20 512.9999 20 512.9999 20 C512.9999 14.4771 508.5228 10 503 10 C502.9999 10 502.9999 10 502.9999 10 L20 10 L20 10 Z"/>
</clipPath>
<clipPath clipPathUnits="userSpaceOnUse" id="clipPath3">
<path d="M216 12 L310 12 L310 35 L216 35 L216 12 Z"/>
</clipPath>
<clipPath clipPathUnits="userSpaceOnUse" id="clipPath4">
<path d="M10 35 L515 35 L515 231 L10 231 L10 35 Z"/>
</clipPath>
<clipPath clipPathUnits="userSpaceOnUse" id="clipPath5">
<path d="M32 39 L32 58 L51 58 L51 39 Z"/>
</clipPath>
<clipPath clipPathUnits="userSpaceOnUse" id="clipPath6">
<path d="M65 76 C65 76 65 76 65 76 L28 76 C22.4771 76 18 80.4772 18 86 L18 102 C18 107.5228 22.4771 112 28 112 C28 112 28 112 28 112 L28 112 L65 112 C70.5228 112 75 107.5228 75 102 L75 86 C75 80.4771 70.5228 76 65 76 Z"/>
</clipPath>
<clipPath clipPathUnits="userSpaceOnUse" id="clipPath7">
<path d="M34 78 L62 78 L62 101 L34 101 L34 78 Z"/>
</clipPath>
<clipPath clipPathUnits="userSpaceOnUse" id="clipPath8">
<path d="M17 75 L77 75 L77 114 L17 114 L17 75 Z"/>
</clipPath>
<clipPath clipPathUnits="userSpaceOnUse" id="clipPath9">
<path d="M222 78 C222 78 222 78 222 78 L133 78 C127.4771 78 123 82.4772 123 88 L123 88 L123 105 C123 110.5228 127.4771 115 133 115 C133 115 133 115 133 115 L133 115 L222 115 C227.5228 115 232 110.5228 232 105 L232 105 L232 88 C232 82.4771 227.5228 78 222 78 Z"/>
</clipPath>
<clipPath clipPathUnits="userSpaceOnUse" id="clipPath10">
<path d="M124 80 L234 80 L234 103 L124 103 L124 80 Z"/>
</clipPath>
<clipPath clipPathUnits="userSpaceOnUse" id="clipPath11">
<path d="M122 77 L234 77 L234 117 L122 117 L122 77 Z"/>
</clipPath>
<clipPath clipPathUnits="userSpaceOnUse" id="clipPath12">
<path d="M264 87 L264 106 L323 106 L323 87 Z"/>
</clipPath>
<clipPath clipPathUnits="userSpaceOnUse" id="clipPath13">
<path d="M246 67 L330 67 L330 90 L246 90 L246 67 Z"/>
</clipPath>
<clipPath clipPathUnits="userSpaceOnUse" id="clipPath14">
<path d="M482 41 C482 41 482 41 482 41 L360 41 C354.4771 41 350 45.4772 350 51 L350 51 L350 130 C350 135.5229 354.4771 140 360 140 L482 140 C487.5228 140 492 135.5228 492 130 L492 130 L492 51 C492 51 492 51 492 51 C492 45.4771 487.5228 41 482 41 Z"/>
</clipPath>
<clipPath clipPathUnits="userSpaceOnUse" id="clipPath15">
<path d="M375 43 L470 43 L470 66 L375 66 L375 43 Z"/>
</clipPath>
<clipPath clipPathUnits="userSpaceOnUse" id="clipPath16">
<path d="M350 66 L494 66 L494 142 L350 142 L350 66 Z"/>
</clipPath>
<clipPath clipPathUnits="userSpaceOnUse" id="clipPath17">
<path d="M436 82 C436 82 436 82 436 82 L394 82 C388.4771 82 384 86.4772 384 92 L384 111 C384 116.5229 388.4772 121 394 121 L436 121 C441.5228 121 446 116.5228 446 111 L446 92 C446 86.4771 441.5228 82 436 82 Z"/>
</clipPath>
<clipPath clipPathUnits="userSpaceOnUse" id="clipPath18">
<path d="M385 84 L448 84 L448 107 L385 107 L385 84 Z"/>
</clipPath>
<clipPath clipPathUnits="userSpaceOnUse" id="clipPath19">
<path d="M383 81 L448 81 L448 123 L383 123 L383 81 Z"/>
</clipPath>
<clipPath clipPathUnits="userSpaceOnUse" id="clipPath20">
<path d="M350 65 L494 65 L494 142 L350 142 L350 65 Z"/>
</clipPath>
<clipPath clipPathUnits="userSpaceOnUse" id="clipPath21">
<path d="M349 40 L494 40 L494 142 L349 142 L349 40 Z"/>
</clipPath>
<clipPath clipPathUnits="userSpaceOnUse" id="clipPath22">
<path d="M322 153 C322 153 322 153 322 153 L259 153 C253.4771 153 249 157.4772 249 163 L249 163 L249 172 C249 177.5228 253.4771 182 259 182 C259 182 259 182 259 182 L259 182 L322 182 C327.5228 182 332 177.5228 332 172 L332 172 L332 163 C332 157.4772 327.5228 153 322 153 Z"/>
</clipPath>
<clipPath clipPathUnits="userSpaceOnUse" id="clipPath23">
<path d="M253 155 L330 155 L330 178 L253 178 L253 155 Z"/>
</clipPath>
<clipPath clipPathUnits="userSpaceOnUse" id="clipPath24">
<path d="M248 152 L334 152 L334 184 L248 184 L248 152 Z"/>
</clipPath>
<clipPath clipPathUnits="userSpaceOnUse" id="clipPath25">
<path d="M10 34 L515 34 L515 231 L10 231 L10 34 Z"/>
</clipPath>
<clipPath clipPathUnits="userSpaceOnUse" id="clipPath26">
<path d="M9 9 L515 9 L515 231 L9 231 L9 9 Z"/>
</clipPath>
<clipPath clipPathUnits="userSpaceOnUse" id="clipPath27">
<path d="M-1 -1 L525 -1 L525 241 L-1 241 L-1 -1 Z"/>
</clipPath>
<clipPath clipPathUnits="userSpaceOnUse" id="clipPath28">
<path d="M291 107 L297 107 L297 124 L291 124 L291 107 Z"/>
</clipPath>
<clipPath clipPathUnits="userSpaceOnUse" id="clipPath29">
<path d="M285 137 L298 137 L298 155 L285 155 L285 137 Z"/>
</clipPath>
<clipPath clipPathUnits="userSpaceOnUse" id="clipPath30">
<path d="M46 58 L52 58 L52 75 L46 75 L46 58 Z"/>
</clipPath>
<clipPath clipPathUnits="userSpaceOnUse" id="clipPath31">
<path d="M41 60 L54 60 L54 78 L41 78 L41 60 Z"/>
</clipPath>
<clipPath clipPathUnits="userSpaceOnUse" id="clipPath32">
<path d="M249 88 L255 88 L255 105 L249 105 L249 88 Z"/>
</clipPath>
<clipPath clipPathUnits="userSpaceOnUse" id="clipPath33">
<path d="M251 90 L269 90 L269 103 L251 103 L251 90 Z"/>
</clipPath>
<clipPath clipPathUnits="userSpaceOnUse" id="clipPath34">
<path d="M139 191 L145 191 L145 208 L139 208 L139 191 Z"/>
</clipPath>
<clipPath clipPathUnits="userSpaceOnUse" id="clipPath35">
<path d="M53 112 L66 112 L66 130 L53 130 L53 112 Z"/>
</clipPath>
<clipPath clipPathUnits="userSpaceOnUse" id="clipPath36">
<path d="M68 65 L74 65 L74 82 L68 82 L68 65 Z"/>
</clipPath>
<clipPath clipPathUnits="userSpaceOnUse" id="clipPath37">
<path d="M107 88 L125 88 L125 101 L107 101 L107 88 Z"/>
</clipPath>
<clipPath clipPathUnits="userSpaceOnUse" id="clipPath38">
<path d="M308 83 L314 83 L314 100 L308 100 L308 83 Z"/>
</clipPath>
<clipPath clipPathUnits="userSpaceOnUse" id="clipPath39">
<path d="M368 91 L386 91 L386 104 L368 104 L368 91 Z"/>
</clipPath>
<clipPath clipPathUnits="userSpaceOnUse" id="clipPath40">
<path d="M218 201 L224 201 L224 218 L218 218 L218 201 Z"/>
</clipPath>
<clipPath clipPathUnits="userSpaceOnUse" id="clipPath41">
<path d="M31 112 L44 112 L44 130 L31 130 L31 112 Z"/>
</clipPath>
</defs>
  <sodipodi:namedview bordercolor="#666666" inkscape:window-height="1005" inkscape:zoom="5.6" id="base" inkscape:current-layer="layer1" style="" inkscape:window-y="-9" inkscape:cy="21.696429" inkscape:window-x="-9" inkscape:cx="-0.034771143" showgrid="false" inkscape:pageopacity="0.0" inkscape:document-units="px" units="px" inkscape:pageshadow="2" inkscape:window-width="1920" pagecolor="#ffffff" borderopacity="1.0" inkscape:window-maximized="1"/>
  <metadata style="" id="metadata7">
    <rdf:RDF style="">
      <cc:Work rdf:about="" style="">
        <dc:format style="">image/svg+xml</dc:format>
        <dc:type style="" rdf:resource="http://purl.org/dc/dcmitype/StillImage"/>
        <dc:title style=""/>
      </cc:Work>
    </rdf:RDF>
  </metadata>
  <g inkscape:groupmode="layer" id="layer1" style="" transform="translate(0,-1032.3617)" inkscape:label="Calque 1">
    <path sodipodi:arg1="0.56068699" inkscape:flatsided="false" inkscape:randomized="0" sodipodi:type="star" d="M 17.5,14.821429 L 16.411844,16.226801 L 15.070423,17.392882 L 13.527285,18.274857 L 11.841734,18.838835 L 10.078543,19.063141 L 8.3054712,18.939156 L 6.5906569,18.471644 L 4.9999996,17.678572 L 3.5946269,16.590416 L 2.4285468,15.248994 L 1.5465709,13.705857 L 0.98259317,12.020305 L 0.75828691,10.257114 L 0.8822721,8.4840429 L 1.3497841,6.7692286 L 2.1428565,5.1785713 L 3.2310123,3.7731986 L 4.5724339,2.6071185 L 6.1155716,1.7251426 L 7.8011231,1.1611649 L 9.564314,0.93685861 L 11.337385,1.0608438 L 13.0522,1.5283558 L 14.642857,2.3214282 L 16.04823,3.409584 L 17.21431,4.7510056 L 18.096286,6.2941433 L 18.660263,7.9796948 L 18.88457,9.7428857 L 18.760584,11.515957 L 18.293073,13.230771 z" id="PapyrusPath" style="stroke-opacity:1; fill:black;fill-opacity:1;stroke:none" inkscape:rounded="0" transform="translate(0,1032.3617)" sodipodi:sides="16" sodipodi:r1="9.0667877" sodipodi:cx="9.8214283" sodipodi:cy="10" sodipodi:arg2="0.75703654" sodipodi:r2="9.0667877"/>
  </g>
</svg>
<g fill="url(#linearGradient3)" font-family="'Segoe UI'" stroke-linejoin="round" stroke="url(#linearGradient3)" stroke-width="0" stroke-miterlimit="0">
<rect x="18" y="76" clip-path="url(#clipPath6)" width="58" height="37" stroke="none"/>
<text x="35" font-size="16" y="97" clip-path="url(#clipPath7)" fill="black" stroke="none" xml:space="preserve">Idle</text>
</g>
<g stroke-width="1.1" font-family="'Segoe UI'" stroke-linecap="butt">
<rect x="18" y="76" clip-path="url(#clipPath8)" fill="none" width="57" rx="10" ry="10" height="36"/>
<rect x="123" y="78" clip-path="url(#clipPath9)" fill="url(#linearGradient4)" width="110" height="38" stroke="none"/>
<text x="125" font-size="16" y="99" clip-path="url(#clipPath10)" stroke="none" xml:space="preserve">SignalChecking</text>
<rect x="123" y="78" clip-path="url(#clipPath11)" fill="none" width="109" rx="10" ry="10" height="37"/>
<rect x="264" y="87" clip-path="url(#clipPath12)" fill="url(#linearGradient5)" width="60" opacity="0" height="20" stroke="none"/>
</g>
<svg xmlns:rdf="http://www.w3.org/1999/02/22-rdf-syntax-ns#" xmlns:svg="http://www.w3.org/2000/svg" xmlns:sodipodi="http://sodipodi.sourceforge.net/DTD/sodipodi-0.dtd" xmlns:dc="http://purl.org/dc/elements/1.1/" xmlns:inkscape="http://www.inkscape.org/namespaces/inkscape" xmlns:cc="http://creativecommons.org/ns#" contentScriptType="text/ecmascript" zoomAndPan="magnify" contentStyleType="text/css" id="svg2" sodipodi:docname="diamond.svg" style="" version="1.1" width="60" preserveAspectRatio="xMidYMid meet" inkscape:version="0.48.5 r10040" height="20" class="" x="264" y="87">
  <defs style="" id="defs4">
    <linearGradient xlink:type="simple" style="" xlink:actuate="onLoad" id="linearGradient3789" xlink:show="other">
      <stop id="stop3791" offset="0" style="stop-color:#000005;stop-opacity:1"/>
      <stop id="stop3793" offset="1" style=" stop-color:white;stop-opacity:0"/>
    </linearGradient>
    <inkscape:perspective inkscape:persp3d-origin="42.5 : 13.333333 : 1" style="" id="perspective3063" inkscape:vp_z="85 : 20 : 1" inkscape:vp_y="0 : 1000 : 0" inkscape:vp_x="0 : 20 : 1" sodipodi:type="inkscape:persp3d"/>
    <linearGradient xlink:type="simple" style="" xlink:actuate="onLoad" id="linearGradient3786" xlink:show="other">
      <stop id="stop3788" offset="0" style=" stop-color:black;stop-opacity:0"/>
      <stop id="stop3794" offset="1" style="stop-color:#919cd7;stop-opacity:1"/>
    </linearGradient>
  </defs>
  <sodipodi:namedview bordercolor="#666666" inkscape:window-height="1005" inkscape:zoom="11.2" id="base" inkscape:current-layer="layer1" style="" inkscape:window-y="-9" inkscape:cy="17.616168" inkscape:window-x="1591" inkscape:cx="31.53922" showgrid="false" inkscape:pageopacity="0.0" inkscape:document-units="px" units="px" inkscape:pageshadow="2" inkscape:window-width="1920" pagecolor="#ffffff" borderopacity="1.0" inkscape:window-maximized="1"/>
  <metadata style="" id="metadata7">
    <rdf:RDF style="">
      <cc:Work rdf:about="" style="">
        <dc:format style="">image/svg+xml</dc:format>
        <dc:type style="" rdf:resource="http://purl.org/dc/dcmitype/StillImage"/>
        <dc:title style=""/>
      </cc:Work>
    </rdf:RDF>
  </metadata>
  <g inkscape:groupmode="layer" id="layer1" style="" transform="translate(0,-1022.3617)" inkscape:label="Calque 1">
    <path id="PapyrusPath" d="M 10,0 L 20,15 L 10,30 L 0,15 z" inkscape:connector-curvature="0" style="stroke-opacity:1;stroke-linejoin:miter;stroke-width:1px; fill:white;fill-opacity:1; stroke:black;stroke-linecap:butt" transform="matrix(0.9340331,0,0,0.94955646,0.70015879,1023.0983)"/>
  </g>
</svg>
<g stroke-width="1.1" font-size="16" font-family="'Segoe UI'" stroke-linecap="butt">
<text xml:space="preserve" x="247" y="86" clip-path="url(#clipPath13)" stroke="none"> dataChoice</text>
<rect x="350" y="41" clip-path="url(#clipPath14)" fill="url(#linearGradient6)" width="143" height="100" stroke="none"/>
<text xml:space="preserve" x="376" y="62" clip-path="url(#clipPath15)" stroke="none">DataQueuing</text>
<rect x="351" y="67" clip-path="url(#clipPath16)" fill="white" width="143" height="74" stroke="none"/>
<rect x="384" y="82" clip-path="url(#clipPath17)" fill="url(#linearGradient7)" width="63" height="40" stroke="none"/>
<text xml:space="preserve" x="386" y="103" clip-path="url(#clipPath18)" stroke="none">Queuing</text>
<rect x="384" y="82" clip-path="url(#clipPath19)" fill="none" width="62" rx="10" ry="10" height="39"/>
<line clip-path="url(#clipPath20)" fill="none" x1="350" x2="493" y1="66" y2="66"/>
<rect x="350" y="41" clip-path="url(#clipPath21)" fill="none" width="142" rx="10" ry="10" height="99"/>
<rect x="249" y="153" clip-path="url(#clipPath22)" fill="url(#linearGradient8)" width="84" height="30" stroke="none"/>
<text xml:space="preserve" x="254" y="174" clip-path="url(#clipPath23)" stroke="none">Discarding</text>
<rect x="249" y="153" clip-path="url(#clipPath24)" fill="none" width="83" rx="10" ry="10" height="29"/>
<line clip-path="url(#clipPath25)" fill="none" x1="11" x2="515" y1="35" y2="35"/>
<rect x="10" y="10" clip-path="url(#clipPath26)" fill="none" width="503" rx="10" ry="10" height="219"/>
<line clip-path="url(#clipPath27)" fill="none" text-rendering="optimizeLegibility" x1="291" x2="291" y1="106" y2="153"/>
<text x="292" font-size="12" y="121" clip-path="url(#clipPath28)" text-rendering="optimizeLegibility" stroke="none" xml:space="preserve"> </text>
<line clip-path="url(#clipPath29)" fill="none" text-rendering="optimizeLegibility" x1="286" x2="291" y1="138" y2="153"/>
<line clip-path="url(#clipPath29)" fill="none" text-rendering="optimizeLegibility" x1="291" x2="296" y1="153" y2="138"/>
<line clip-path="url(#clipPath27)" fill="none" text-rendering="optimizeLegibility" x1="47" x2="47" y1="55" y2="76"/>
<text x="47" font-size="12" y="72" clip-path="url(#clipPath30)" text-rendering="optimizeLegibility" stroke="none" xml:space="preserve"> </text>
<line clip-path="url(#clipPath31)" fill="none" text-rendering="optimizeLegibility" x1="42" x2="47" y1="61" y2="76"/>
<line clip-path="url(#clipPath31)" fill="none" text-rendering="optimizeLegibility" x1="47" x2="52" y1="76" y2="61"/>
<line clip-path="url(#clipPath27)" fill="none" text-rendering="optimizeLegibility" x1="233" x2="267" y1="96" y2="96"/>
<text x="250" font-size="12" y="102" clip-path="url(#clipPath32)" text-rendering="optimizeLegibility" stroke="none" xml:space="preserve"> </text>
<line clip-path="url(#clipPath33)" fill="none" text-rendering="optimizeLegibility" x1="252" x2="267" y1="101" y2="96"/>
<line clip-path="url(#clipPath33)" fill="none" text-rendering="optimizeLegibility" x1="267" x2="252" y1="96" y2="91"/>
<line clip-path="url(#clipPath27)" fill="none" text-rendering="optimizeLegibility" x1="291" x2="291" y1="183" y2="199"/>
<line clip-path="url(#clipPath27)" fill="none" text-rendering="optimizeLegibility" x1="291" x2="59" y1="199" y2="199"/>
<line clip-path="url(#clipPath27)" fill="none" text-rendering="optimizeLegibility" x1="59" x2="59" y1="199" y2="113"/>
<text x="140" font-size="12" y="205" clip-path="url(#clipPath34)" text-rendering="optimizeLegibility" stroke="none" xml:space="preserve"> </text>
<line clip-path="url(#clipPath35)" fill="none" text-rendering="optimizeLegibility" x1="64" x2="59" y1="128" y2="113"/>
<line clip-path="url(#clipPath35)" fill="none" text-rendering="optimizeLegibility" x1="59" x2="54" y1="113" y2="128"/>
<line clip-path="url(#clipPath27)" fill="none" text-rendering="optimizeLegibility" x1="76" x2="123" y1="94" y2="94"/>
<text x="69" font-size="12" y="79" clip-path="url(#clipPath36)" text-rendering="optimizeLegibility" stroke="none" xml:space="preserve"> </text>
<line clip-path="url(#clipPath37)" fill="none" text-rendering="optimizeLegibility" x1="108" x2="123" y1="99" y2="94"/>
<line clip-path="url(#clipPath37)" fill="none" text-rendering="optimizeLegibility" x1="123" x2="108" y1="94" y2="89"/>
<line clip-path="url(#clipPath27)" fill="none" text-rendering="optimizeLegibility" x1="324" x2="384" y1="97" y2="97"/>
<text x="309" font-size="12" y="97" clip-path="url(#clipPath38)" text-rendering="optimizeLegibility" stroke="none" xml:space="preserve"> </text>
<line clip-path="url(#clipPath39)" fill="none" text-rendering="optimizeLegibility" x1="369" x2="384" y1="102" y2="97"/>
<line clip-path="url(#clipPath39)" fill="none" text-rendering="optimizeLegibility" x1="384" x2="369" y1="97" y2="92"/>
<line clip-path="url(#clipPath27)" fill="none" text-rendering="optimizeLegibility" x1="411" x2="411" y1="122" y2="209"/>
<line clip-path="url(#clipPath27)" fill="none" text-rendering="optimizeLegibility" x1="411" x2="37" y1="209" y2="209"/>
<line clip-path="url(#clipPath27)" fill="none" text-rendering="optimizeLegibility" x1="37" x2="37" y1="209" y2="133"/>
<line clip-path="url(#clipPath27)" fill="none" text-rendering="optimizeLegibility" x1="37" x2="37" y1="133" y2="113"/>
<text x="219" font-size="12" y="215" clip-path="url(#clipPath40)" text-rendering="optimizeLegibility" stroke="none" xml:space="preserve"> </text>
<line clip-path="url(#clipPath41)" fill="none" text-rendering="optimizeLegibility" x1="42" x2="37" y1="128" y2="113"/>
<line clip-path="url(#clipPath41)" fill="none" text-rendering="optimizeLegibility" x1="37" x2="32" y1="113" y2="128"/>
<line clip-path="url(#clipPath27)" fill="none" text-rendering="optimizeLegibility" x1="47" x2="47" y1="55" y2="76"/>
<text x="47" font-size="12" y="72" clip-path="url(#clipPath30)" text-rendering="optimizeLegibility" stroke="none" xml:space="preserve"> </text>
<line clip-path="url(#clipPath31)" fill="none" text-rendering="optimizeLegibility" x1="42" x2="47" y1="61" y2="76"/>
<line clip-path="url(#clipPath31)" fill="none" text-rendering="optimizeLegibility" x1="47" x2="52" y1="76" y2="61"/>
<line clip-path="url(#clipPath27)" fill="none" text-rendering="optimizeLegibility" x1="76" x2="123" y1="94" y2="94"/>
<text x="69" font-size="12" y="79" clip-path="url(#clipPath36)" text-rendering="optimizeLegibility" stroke="none" xml:space="preserve"> </text>
<line clip-path="url(#clipPath37)" fill="none" text-rendering="optimizeLegibility" x1="108" x2="123" y1="99" y2="94"/>
<line clip-path="url(#clipPath37)" fill="none" text-rendering="optimizeLegibility" x1="123" x2="108" y1="94" y2="89"/>
<line clip-path="url(#clipPath27)" fill="none" text-rendering="optimizeLegibility" x1="233" x2="267" y1="96" y2="96"/>
<text x="250" font-size="12" y="102" clip-path="url(#clipPath32)" text-rendering="optimizeLegibility" stroke="none" xml:space="preserve"> </text>
<line clip-path="url(#clipPath33)" fill="none" text-rendering="optimizeLegibility" x1="252" x2="267" y1="101" y2="96"/>
<line clip-path="url(#clipPath33)" fill="none" text-rendering="optimizeLegibility" x1="267" x2="252" y1="96" y2="91"/>
<line clip-path="url(#clipPath27)" fill="none" text-rendering="optimizeLegibility" x1="291" x2="291" y1="106" y2="153"/>
<text x="292" font-size="12" y="121" clip-path="url(#clipPath28)" text-rendering="optimizeLegibility" stroke="none" xml:space="preserve"> </text>
<line clip-path="url(#clipPath29)" fill="none" text-rendering="optimizeLegibility" x1="286" x2="291" y1="138" y2="153"/>
<line clip-path="url(#clipPath29)" fill="none" text-rendering="optimizeLegibility" x1="291" x2="296" y1="153" y2="138"/>
<line clip-path="url(#clipPath27)" fill="none" text-rendering="optimizeLegibility" x1="324" x2="384" y1="97" y2="97"/>
<text x="309" font-size="12" y="97" clip-path="url(#clipPath38)" text-rendering="optimizeLegibility" stroke="none" xml:space="preserve"> </text>
<line clip-path="url(#clipPath39)" fill="none" text-rendering="optimizeLegibility" x1="369" x2="384" y1="102" y2="97"/>
<line clip-path="url(#clipPath39)" fill="none" text-rendering="optimizeLegibility" x1="384" x2="369" y1="97" y2="92"/>
<line clip-path="url(#clipPath27)" fill="none" text-rendering="optimizeLegibility" x1="411" x2="411" y1="122" y2="209"/>
<line clip-path="url(#clipPath27)" fill="none" text-rendering="optimizeLegibility" x1="411" x2="37" y1="209" y2="209"/>
<line clip-path="url(#clipPath27)" fill="none" text-rendering="optimizeLegibility" x1="37" x2="37" y1="209" y2="133"/>
<line clip-path="url(#clipPath27)" fill="none" text-rendering="optimizeLegibility" x1="37" x2="37" y1="133" y2="113"/>
<text x="219" font-size="12" y="215" clip-path="url(#clipPath40)" text-rendering="optimizeLegibility" stroke="none" xml:space="preserve"> </text>
<line clip-path="url(#clipPath41)" fill="none" text-rendering="optimizeLegibility" x1="42" x2="37" y1="128" y2="113"/>
<line clip-path="url(#clipPath41)" fill="none" text-rendering="optimizeLegibility" x1="37" x2="32" y1="113" y2="128"/>
<line clip-path="url(#clipPath27)" fill="none" text-rendering="optimizeLegibility" x1="291" x2="291" y1="183" y2="199"/>
<line clip-path="url(#clipPath27)" fill="none" text-rendering="optimizeLegibility" x1="291" x2="59" y1="199" y2="199"/>
<line clip-path="url(#clipPath27)" fill="none" text-rendering="optimizeLegibility" x1="59" x2="59" y1="199" y2="113"/>
<text x="140" font-size="12" y="205" clip-path="url(#clipPath34)" text-rendering="optimizeLegibility" stroke="none" xml:space="preserve"> </text>
<line clip-path="url(#clipPath35)" fill="none" text-rendering="optimizeLegibility" x1="64" x2="59" y1="128" y2="113"/>
<line clip-path="url(#clipPath35)" fill="none" text-rendering="optimizeLegibility" x1="59" x2="54" y1="113" y2="128"/>
</g>
</g>
</svg>
