<?xml version="1.0" encoding="UTF-8"?><svg xmlns="http://www.w3.org/2000/svg" xmlns:xlink="http://www.w3.org/1999/xlink" stroke-dasharray="none" shape-rendering="auto" font-family="'Dialog'" width="198" text-rendering="auto" fill-opacity="1" contentScriptType="text/ecmascript" color-interpolation="auto" color-rendering="auto" preserveAspectRatio="xMidYMid meet" font-size="12" viewBox="0 0 198 210" fill="black" stroke="black" image-rendering="auto" stroke-miterlimit="10" zoomAndPan="magnify" version="1.0" stroke-linecap="square" stroke-linejoin="miter" contentStyleType="text/css" font-style="normal" height="210" stroke-width="1" stroke-dashoffset="0" font-weight="normal" stroke-opacity="1">
<!--Generated by the Batik Graphics2D SVG Generator-->
<defs id="genericDefs"/>
<g>
<g fill="url(#linearGradient1)" font-family="'Segoe UI'" stroke-linejoin="round" stroke="url(#linearGradient1)" stroke-width="0" stroke-miterlimit="0">
<rect x="10" y="10" clip-path="url(#clipPath1)" width="178" height="190" stroke="none"/>
<text x="62" y="25" clip-path="url(#clipPath2)" fill="black" font-family="'Tahoma'" stroke="none" xml:space="preserve">HighwayOpen</text>
<rect x="11" y="29" clip-path="url(#clipPath3)" fill="white" width="178" height="171" stroke="none"/>
<rect x="62" y="43" clip-path="url(#clipPath4)" fill="url(#linearGradient2)" width="20" opacity="0" height="20" stroke="none"/>
</g>
<svg xmlns:rdf="http://www.w3.org/1999/02/22-rdf-syntax-ns#" xmlns:svg="http://www.w3.org/2000/svg" xmlns:sodipodi="http://sodipodi.sourceforge.net/DTD/sodipodi-0.dtd" xmlns:dc="http://purl.org/dc/elements/1.1/" xmlns:inkscape="http://www.inkscape.org/namespaces/inkscape" xmlns:cc="http://creativecommons.org/ns#" contentScriptType="text/ecmascript" zoomAndPan="magnify" contentStyleType="text/css" id="svg2" sodipodi:docname="round_full.svg" style="" version="1.1" width="20" preserveAspectRatio="xMidYMid meet" inkscape:version="0.48.5 r10040" height="20" class="" x="62" y="43">
  <defs style="" id="defs4">
    <linearGradient xlink:type="simple" style="" xlink:actuate="onLoad" id="linearGradient3789" xlink:show="other">
      <stop id="stop3791" offset="0" style="stop-color:#000005;stop-opacity:1"/>
      <stop id="stop3793" offset="1" style="  stop-color:black;stop-opacity:0"/>
    </linearGradient>
    <inkscape:perspective inkscape:persp3d-origin="42.5 : 13.333333 : 1" style="" id="perspective3063" inkscape:vp_z="85 : 20 : 1" inkscape:vp_y="0 : 1000 : 0" inkscape:vp_x="0 : 20 : 1" sodipodi:type="inkscape:persp3d"/>
    <linearGradient xlink:type="simple" style="" xlink:actuate="onLoad" id="linearGradient3786" xlink:show="other">
      <stop id="stop3788" offset="0" style=" stop-color:black;stop-opacity:0"/>
      <stop id="stop3794" offset="1" style="stop-color:#919cd7;stop-opacity:1"/>
    </linearGradient>
  <linearGradient x1="10" x2="10" y1="10" gradientUnits="userSpaceOnUse" y2="200" xlink:type="simple" xlink:actuate="onLoad" id="linearGradient1" xlink:show="other" spreadMethod="pad">
<stop stop-opacity="1" stop-color="white" offset="0%"/>
<stop stop-opacity="1" stop-color="white" offset="100%"/>
</linearGradient>
<linearGradient x1="62" x2="62" y1="43" gradientUnits="userSpaceOnUse" y2="63" xlink:type="simple" xlink:actuate="onLoad" id="linearGradient2" xlink:show="other" spreadMethod="pad">
<stop stop-opacity="1" stop-color="black" offset="0%"/>
<stop stop-opacity="1" stop-color="black" offset="100%"/>
</linearGradient>
<linearGradient x1="26" x2="26" y1="87" gradientUnits="userSpaceOnUse" y2="146" xlink:type="simple" xlink:actuate="onLoad" id="linearGradient3" xlink:show="other" spreadMethod="pad">
<stop stop-opacity="1" stop-color="white" offset="0%"/>
<stop stop-opacity="1" stop-color="white" offset="100%"/>
</linearGradient>
<linearGradient x1="70" x2="70" y1="169" gradientUnits="userSpaceOnUse" y2="189" xlink:type="simple" xlink:actuate="onLoad" id="linearGradient4" xlink:show="other" spreadMethod="pad">
<stop stop-opacity="1" stop-color="white" offset="0%"/>
<stop stop-opacity="1" stop-color="white" offset="100%"/>
</linearGradient>
<clipPath clipPathUnits="userSpaceOnUse" id="clipPath1">
<path d="M20 10 C14.4771 10 10 14.4772 10 20 L10 20 L10 189 C10 194.5228 14.4771 199 20 199 C20 199 20 199 20 199 L20 199 L177 199 C182.5228 199 187 194.5228 187 189 L187 189 L187 20 C187 20 187 20 187 20 C187 14.4771 182.5228 10 177 10 C177 10 177 10 177 10 L20 10 L20 10 Z"/>
</clipPath>
<clipPath clipPathUnits="userSpaceOnUse" id="clipPath2">
<path d="M61 12 L139 12 L139 28 L61 28 L61 12 Z"/>
</clipPath>
<clipPath clipPathUnits="userSpaceOnUse" id="clipPath3">
<path d="M10 28 L189 28 L189 201 L10 201 L10 28 Z"/>
</clipPath>
<clipPath clipPathUnits="userSpaceOnUse" id="clipPath4">
<path d="M62 43 L62 62 L81 62 L81 43 Z"/>
</clipPath>
<clipPath clipPathUnits="userSpaceOnUse" id="clipPath5">
<path d="M86 45 L127 45 L127 62 L86 62 L86 45 Z"/>
</clipPath>
<clipPath clipPathUnits="userSpaceOnUse" id="clipPath6">
<path d="M132 87 C132 87 132 87 132 87 L36 87 C30.4771 87 26 91.4772 26 97 L26 135 C26 140.5229 30.4772 145 36 145 L132 145 C137.5228 145 142 140.5228 142 135 L142 135 L142 97 C142 97 142 97 142 97 C142 91.4771 137.5228 87 132 87 Z"/>
</clipPath>
<clipPath clipPathUnits="userSpaceOnUse" id="clipPath7">
<path d="M27 89 L144 89 L144 106 L27 106 L27 89 Z"/>
</clipPath>
<clipPath clipPathUnits="userSpaceOnUse" id="clipPath8">
<path d="M66 105 L104 105 L104 122 L66 122 L66 105 Z"/>
</clipPath>
<clipPath clipPathUnits="userSpaceOnUse" id="clipPath9">
<path d="M25 86 L144 86 L144 147 L25 147 L25 86 Z"/>
</clipPath>
<clipPath clipPathUnits="userSpaceOnUse" id="clipPath10">
<path d="M70 169 L70 188 L89 188 L89 169 Z"/>
</clipPath>
<clipPath clipPathUnits="userSpaceOnUse" id="clipPath11">
<path d="M94 171 L157 171 L157 188 L94 188 L94 171 Z"/>
</clipPath>
<clipPath clipPathUnits="userSpaceOnUse" id="clipPath12">
<path d="M10 27 L189 27 L189 201 L10 201 L10 27 Z"/>
</clipPath>
<clipPath clipPathUnits="userSpaceOnUse" id="clipPath13">
<path d="M9 9 L189 9 L189 201 L9 201 L9 9 Z"/>
</clipPath>
<clipPath clipPathUnits="userSpaceOnUse" id="clipPath14">
<path d="M-1 -1 L199 -1 L199 211 L-1 211 L-1 -1 Z"/>
</clipPath>
<clipPath clipPathUnits="userSpaceOnUse" id="clipPath15">
<path d="M79 150 L90 150 L90 167 L79 167 L79 150 Z"/>
</clipPath>
<clipPath clipPathUnits="userSpaceOnUse" id="clipPath16">
<path d="M74 154 L87 154 L87 172 L74 172 L74 154 Z"/>
</clipPath>
<clipPath clipPathUnits="userSpaceOnUse" id="clipPath17">
<path d="M74 66 L80 66 L80 83 L74 83 L74 66 Z"/>
</clipPath>
<clipPath clipPathUnits="userSpaceOnUse" id="clipPath18">
<path d="M69 71 L82 71 L82 89 L69 89 L69 71 Z"/>
</clipPath>
</defs>
  <sodipodi:namedview bordercolor="#666666" inkscape:window-height="1005" inkscape:zoom="5.6" id="base" inkscape:current-layer="layer1" style="" inkscape:window-y="-9" inkscape:cy="21.696429" inkscape:window-x="-9" inkscape:cx="-0.034771143" showgrid="false" inkscape:pageopacity="0.0" inkscape:document-units="px" units="px" inkscape:pageshadow="2" inkscape:window-width="1920" pagecolor="#ffffff" borderopacity="1.0" inkscape:window-maximized="1"/>
  <metadata style="" id="metadata7">
    <rdf:RDF style="">
      <cc:Work rdf:about="" style="">
        <dc:format style="">image/svg+xml</dc:format>
        <dc:type style="" rdf:resource="http://purl.org/dc/dcmitype/StillImage"/>
        <dc:title style=""/>
      </cc:Work>
    </rdf:RDF>
  </metadata>
  <g inkscape:groupmode="layer" id="layer1" style="" transform="translate(0,-1032.3617)" inkscape:label="Calque 1">
    <path sodipodi:arg1="0.56068699" inkscape:flatsided="false" inkscape:randomized="0" sodipodi:type="star" d="M 17.5,14.821429 L 16.411844,16.226801 L 15.070423,17.392882 L 13.527285,18.274857 L 11.841734,18.838835 L 10.078543,19.063141 L 8.3054712,18.939156 L 6.5906569,18.471644 L 4.9999996,17.678572 L 3.5946269,16.590416 L 2.4285468,15.248994 L 1.5465709,13.705857 L 0.98259317,12.020305 L 0.75828691,10.257114 L 0.8822721,8.4840429 L 1.3497841,6.7692286 L 2.1428565,5.1785713 L 3.2310123,3.7731986 L 4.5724339,2.6071185 L 6.1155716,1.7251426 L 7.8011231,1.1611649 L 9.564314,0.93685861 L 11.337385,1.0608438 L 13.0522,1.5283558 L 14.642857,2.3214282 L 16.04823,3.409584 L 17.21431,4.7510056 L 18.096286,6.2941433 L 18.660263,7.9796948 L 18.88457,9.7428857 L 18.760584,11.515957 L 18.293073,13.230771 z" id="PapyrusPath" style="stroke-opacity:1; fill:black;fill-opacity:1;stroke:none" inkscape:rounded="0" transform="translate(0,1032.3617)" sodipodi:sides="16" sodipodi:r1="9.0667877" sodipodi:cx="9.8214283" sodipodi:cy="10" sodipodi:arg2="0.75703654" sodipodi:r2="9.0667877"/>
  </g>
</svg>
<g stroke-miterlimit="0" stroke-width="0" font-family="'Segoe UI'" stroke-linejoin="round">
<text xml:space="preserve" x="87" y="59" clip-path="url(#clipPath5)" stroke="none"> Initial1</text>
<rect x="26" y="87" clip-path="url(#clipPath6)" fill="url(#linearGradient3)" width="117" height="59" stroke="none"/>
<text xml:space="preserve" x="28" y="103" clip-path="url(#clipPath7)" stroke="none">WaitForPreconditions</text>
<text xml:space="preserve" x="67" y="119" clip-path="url(#clipPath8)" stroke="none">after ...</text>
</g>
<g stroke-width="1.1" font-family="'Segoe UI'" stroke-linecap="butt">
<rect x="26" y="87" clip-path="url(#clipPath9)" fill="none" width="116" rx="10" ry="10" height="58"/>
<rect x="70" y="169" clip-path="url(#clipPath10)" fill="url(#linearGradient4)" width="20" opacity="0" height="20" stroke="none"/>
</g>
<svg xmlns:rdf="http://www.w3.org/1999/02/22-rdf-syntax-ns#" xmlns:svg="http://www.w3.org/2000/svg" xmlns:sodipodi="http://sodipodi.sourceforge.net/DTD/sodipodi-0.dtd" xmlns:dc="http://purl.org/dc/elements/1.1/" xmlns:inkscape="http://www.inkscape.org/namespaces/inkscape" xmlns:cc="http://creativecommons.org/ns#" contentScriptType="text/ecmascript" zoomAndPan="magnify" contentStyleType="text/css" id="svg2" sodipodi:docname="round_with_dot.svg" style="" version="1.1" width="20" preserveAspectRatio="xMidYMid meet" inkscape:version="0.48.5 r10040" height="20" class="" x="70" y="169">
  <defs style="" id="defs4">
    <linearGradient xlink:type="simple" style="" xlink:actuate="onLoad" id="linearGradient3789" xlink:show="other">
      <stop id="stop3791" offset="0" style="stop-color:#000005;stop-opacity:1"/>
      <stop id="stop3793" offset="1" style=" stop-color:white;stop-opacity:0"/>
    </linearGradient>
    <inkscape:perspective inkscape:persp3d-origin="42.5 : 13.333333 : 1" style="" id="perspective3063" inkscape:vp_z="85 : 20 : 1" inkscape:vp_y="0 : 1000 : 0" inkscape:vp_x="0 : 20 : 1" sodipodi:type="inkscape:persp3d"/>
    <linearGradient xlink:type="simple" style="" xlink:actuate="onLoad" id="linearGradient3786" xlink:show="other">
      <stop id="stop3788" offset="0" style=" stop-color:black;stop-opacity:0"/>
      <stop id="stop3794" offset="1" style="stop-color:#919cd7;stop-opacity:1"/>
    </linearGradient>
  </defs>
  <sodipodi:namedview bordercolor="#666666" inkscape:window-height="1018" inkscape:zoom="5.6" id="base" inkscape:current-layer="layer1" style="" inkscape:window-y="-8" inkscape:cy="21.696429" inkscape:window-x="-8" inkscape:cx="-55.391914" showgrid="false" inkscape:pageopacity="0.0" inkscape:document-units="px" units="px" inkscape:pageshadow="2" inkscape:window-width="1920" pagecolor="#ffffff" borderopacity="1.0" inkscape:window-maximized="1"/>
  <metadata style="" id="metadata7">
    <rdf:RDF style="">
      <cc:Work rdf:about="" style="">
        <dc:format style="">image/svg+xml</dc:format>
        <dc:type style="" rdf:resource="http://purl.org/dc/dcmitype/StillImage"/>
        <dc:title style=""/>
      </cc:Work>
    </rdf:RDF>
  </metadata>
  <g inkscape:groupmode="layer" id="layer2" style="" inkscape:label="Calque">
    <path sodipodi:arg1="0.88367212" inkscape:flatsided="false" inkscape:randomized="0" sodipodi:type="star" d="M 15.714286,17.32143 L 14.245822,18.302415 L 12.614195,18.978067 L 10.882105,19.322423 L 9.1161164,19.322248 L 7.3840946,18.977549 L 5.7526012,18.301572 L 4.2843323,17.320296 L 3.0357139,16.071429 L 2.0547286,14.602966 L 1.379076,12.971338 L 1.0347205,11.239248 L 1.0348957,9.4732598 L 1.3795949,7.741238 L 2.0555712,6.1097446 L 3.0368478,4.6414757 L 4.285714,3.3928573 L 5.7541775,2.411872 L 7.385805,1.7362194 L 9.1178952,1.3918639 L 10.883884,1.3920391 L 12.615905,1.7367383 L 14.247399,2.4127146 L 15.715668,3.3939912 L 16.964286,4.6428574 L 17.945271,6.1113209 L 18.620924,7.7429484 L 18.96528,9.4750386 L 18.965104,11.241027 L 18.620405,12.973049 L 17.944429,14.604542 L 16.963152,16.072811 z" id="PapyrusPath" style="stroke-opacity:1; fill:white;fill-opacity:1; stroke:black" inkscape:rounded="0" transform="translate(0,-0.35714286)" sodipodi:sides="16" sodipodi:r1="9.0085707" sodipodi:cx="10" sodipodi:cy="10.357143" sodipodi:arg2="1.0800217" sodipodi:r2="9.0085707"/>
  </g>
  <g inkscape:groupmode="layer" id="layer1" style="" transform="translate(0,-1032.3617)" inkscape:label="Calque 1">
    <path transform="matrix(0.22784801,0,0,0.24489499,6.8670899,1039.3515)" style="stroke-opacity:1;stroke-linejoin:round;stroke-dasharray:none;stroke-width:8.4667635;fill:none; stroke:black;stroke-linecap:round;stroke-miterlimit:4" sodipodi:cx="13.75" sodipodi:cy="13.75" id="dot" sodipodi:rx="3.9285715" d="M 17.678571,13.75 A 3.9285715,3.75 0 1 1 9.8214285,13.75 A 3.9285715,3.75 0 1 1 17.678571,13.75 z" sodipodi:ry="3.75" sodipodi:type="arc"/>
    <path transform="matrix(0.35510429,0,0,0.38167224,5.117316,1037.4709)" style="stroke-opacity:1;stroke-linejoin:round;stroke-dasharray:none;stroke-width:8.4667635;fill:none; stroke:black;stroke-linecap:round;stroke-miterlimit:4" sodipodi:cx="13.75" sodipodi:cy="13.75" id="dot-1" sodipodi:rx="3.9285715" d="M 17.678571,13.75 A 3.9285715,3.75 0 1 1 9.8214285,13.75 A 3.9285715,3.75 0 1 1 17.678571,13.75 z" sodipodi:ry="3.75" sodipodi:type="arc"/>
    <path transform="matrix(0.50539052,0,0,0.54320248,3.0508804,1035.2498)" style="stroke-opacity:1;stroke-linejoin:round;stroke-dasharray:none;stroke-width:8.4667635;fill:none; stroke:black;stroke-linecap:round;stroke-miterlimit:4" sodipodi:cx="13.75" sodipodi:cy="13.75" id="dot-1-7" sodipodi:rx="3.9285715" d="M 17.678571,13.75 A 3.9285715,3.75 0 1 1 9.8214285,13.75 A 3.9285715,3.75 0 1 1 17.678571,13.75 z" sodipodi:ry="3.75" sodipodi:type="arc"/>
    <path transform="matrix(0.60200309,0,0,0.64704335,1.7224575,1033.4649)" style="stroke-opacity:1;stroke-linejoin:round;stroke-dasharray:none;stroke-width:8.4667635;fill:none; stroke:black;stroke-linecap:round;stroke-miterlimit:4" sodipodi:cx="13.75" sodipodi:cy="13.75" id="dot-1-7-4" sodipodi:rx="3.9285715" d="M 17.678571,13.75 A 3.9285715,3.75 0 1 1 9.8214285,13.75 A 3.9285715,3.75 0 1 1 17.678571,13.75 z" sodipodi:ry="3.75" sodipodi:type="arc"/>
  </g>
</svg>
<g stroke-width="1.1" font-family="'Segoe UI'" stroke-linecap="butt">
<text xml:space="preserve" x="95" y="185" clip-path="url(#clipPath11)" stroke="none"> FinalState1</text>
<line clip-path="url(#clipPath12)" fill="none" x1="11" x2="189" y1="28" y2="28" stroke="rgb(176,176,176)"/>
<rect x="10" y="10" clip-path="url(#clipPath13)" fill="none" width="177" rx="10" ry="10" height="189" stroke="rgb(176,176,176)"/>
<line clip-path="url(#clipPath14)" fill="none" text-rendering="optimizeLegibility" x1="80" x2="80" y1="146" y2="170"/>
<text x="80" y="164" clip-path="url(#clipPath15)" text-rendering="optimizeLegibility" stroke="none" xml:space="preserve">...</text>
<line clip-path="url(#clipPath16)" fill="none" text-rendering="optimizeLegibility" x1="75" x2="80" y1="155" y2="170"/>
<line clip-path="url(#clipPath16)" fill="none" text-rendering="optimizeLegibility" x1="80" x2="85" y1="170" y2="155"/>
<line clip-path="url(#clipPath14)" fill="none" text-rendering="optimizeLegibility" x1="75" x2="75" y1="60" y2="87"/>
<text x="75" y="80" clip-path="url(#clipPath17)" text-rendering="optimizeLegibility" stroke="none" xml:space="preserve"> </text>
<line clip-path="url(#clipPath18)" fill="none" text-rendering="optimizeLegibility" x1="70" x2="75" y1="72" y2="87"/>
<line clip-path="url(#clipPath18)" fill="none" text-rendering="optimizeLegibility" x1="75" x2="80" y1="87" y2="72"/>
<line clip-path="url(#clipPath14)" fill="none" text-rendering="optimizeLegibility" x1="75" x2="75" y1="60" y2="87"/>
<text x="75" y="80" clip-path="url(#clipPath17)" text-rendering="optimizeLegibility" stroke="none" xml:space="preserve"> </text>
<line clip-path="url(#clipPath18)" fill="none" text-rendering="optimizeLegibility" x1="70" x2="75" y1="72" y2="87"/>
<line clip-path="url(#clipPath18)" fill="none" text-rendering="optimizeLegibility" x1="75" x2="80" y1="87" y2="72"/>
<line clip-path="url(#clipPath14)" fill="none" text-rendering="optimizeLegibility" x1="80" x2="80" y1="146" y2="170"/>
<text x="80" y="164" clip-path="url(#clipPath15)" text-rendering="optimizeLegibility" stroke="none" xml:space="preserve">...</text>
<line clip-path="url(#clipPath16)" fill="none" text-rendering="optimizeLegibility" x1="75" x2="80" y1="155" y2="170"/>
<line clip-path="url(#clipPath16)" fill="none" text-rendering="optimizeLegibility" x1="80" x2="85" y1="170" y2="155"/>
</g>
</g>
</svg>
