<?xml version="1.0" encoding="UTF-8"?><svg xmlns="http://www.w3.org/2000/svg" xmlns:xlink="http://www.w3.org/1999/xlink" stroke-dasharray="none" shape-rendering="auto" font-family="'Dialog'" width="231" text-rendering="auto" fill-opacity="1" contentScriptType="text/ecmascript" color-interpolation="auto" color-rendering="auto" preserveAspectRatio="xMidYMid meet" font-size="12" viewBox="0 0 231 297" fill="black" stroke="black" image-rendering="auto" stroke-miterlimit="10" zoomAndPan="magnify" version="1.0" stroke-linecap="square" stroke-linejoin="miter" contentStyleType="text/css" font-style="normal" height="297" stroke-width="1" stroke-dashoffset="0" font-weight="normal" stroke-opacity="1">
<!--Generated by the Batik Graphics2D SVG Generator-->
<defs id="genericDefs"/>
<g>
<g fill="url(#linearGradient1)" font-family="'Segoe UI'" stroke-linejoin="round" stroke="url(#linearGradient1)" stroke-width="0" stroke-miterlimit="0">
<rect x="10" y="10" clip-path="url(#clipPath1)" width="211" height="277" stroke="none"/>
<text x="78" y="25" clip-path="url(#clipPath2)" fill="black" font-family="'Tahoma'" stroke="none" xml:space="preserve">HighwayOpen</text>
<rect x="11" y="29" clip-path="url(#clipPath3)" fill="white" width="211" height="258" stroke="none"/>
<rect x="19" y="80" clip-path="url(#clipPath4)" fill="url(#linearGradient2)" width="160" height="44" stroke="none"/>
<text x="21" y="96" clip-path="url(#clipPath5)" fill="black" stroke="none" xml:space="preserve">WaitingForHighwayMinimum</text>
</g>
<g stroke-width="1.1" font-family="'Segoe UI'" stroke-linecap="butt">
<rect x="19" y="80" clip-path="url(#clipPath6)" fill="none" width="159" rx="10" ry="10" height="43"/>
<rect x="90" y="34" clip-path="url(#clipPath7)" fill="url(#linearGradient3)" width="20" opacity="0" height="20" stroke="none"/>
</g>
<svg xmlns:rdf="http://www.w3.org/1999/02/22-rdf-syntax-ns#" xmlns:svg="http://www.w3.org/2000/svg" xmlns:sodipodi="http://sodipodi.sourceforge.net/DTD/sodipodi-0.dtd" xmlns:dc="http://purl.org/dc/elements/1.1/" xmlns:inkscape="http://www.inkscape.org/namespaces/inkscape" xmlns:cc="http://creativecommons.org/ns#" contentScriptType="text/ecmascript" zoomAndPan="magnify" contentStyleType="text/css" id="svg2" sodipodi:docname="round_full.svg" style="" version="1.1" width="20" preserveAspectRatio="xMidYMid meet" inkscape:version="0.48.5 r10040" height="20" class="" x="90" y="34">
  <defs style="" id="defs4">
    <linearGradient xlink:type="simple" style="" xlink:actuate="onLoad" id="linearGradient3789" xlink:show="other">
      <stop id="stop3791" offset="0" style="stop-color:#000005;stop-opacity:1"/>
      <stop id="stop3793" offset="1" style="  stop-color:black;stop-opacity:0"/>
    </linearGradient>
    <inkscape:perspective inkscape:persp3d-origin="42.5 : 13.333333 : 1" style="" id="perspective3063" inkscape:vp_z="85 : 20 : 1" inkscape:vp_y="0 : 1000 : 0" inkscape:vp_x="0 : 20 : 1" sodipodi:type="inkscape:persp3d"/>
    <linearGradient xlink:type="simple" style="" xlink:actuate="onLoad" id="linearGradient3786" xlink:show="other">
      <stop id="stop3788" offset="0" style=" stop-color:black;stop-opacity:0"/>
      <stop id="stop3794" offset="1" style="stop-color:#919cd7;stop-opacity:1"/>
    </linearGradient>
  <linearGradient x1="10" x2="10" y1="10" gradientUnits="userSpaceOnUse" y2="287" xlink:type="simple" xlink:actuate="onLoad" id="linearGradient1" xlink:show="other" spreadMethod="pad">
<stop stop-opacity="1" stop-color="white" offset="0%"/>
<stop stop-opacity="1" stop-color="white" offset="100%"/>
</linearGradient>
<linearGradient x1="19" x2="19" y1="80" gradientUnits="userSpaceOnUse" y2="124" xlink:type="simple" xlink:actuate="onLoad" id="linearGradient2" xlink:show="other" spreadMethod="pad">
<stop stop-opacity="1" stop-color="white" offset="0%"/>
<stop stop-opacity="1" stop-color="white" offset="100%"/>
</linearGradient>
<linearGradient x1="90" x2="90" y1="34" gradientUnits="userSpaceOnUse" y2="54" xlink:type="simple" xlink:actuate="onLoad" id="linearGradient3" xlink:show="other" spreadMethod="pad">
<stop stop-opacity="1" stop-color="black" offset="0%"/>
<stop stop-opacity="1" stop-color="black" offset="100%"/>
</linearGradient>
<linearGradient x1="38" x2="38" y1="158" gradientUnits="userSpaceOnUse" y2="202" xlink:type="simple" xlink:actuate="onLoad" id="linearGradient4" xlink:show="other" spreadMethod="pad">
<stop stop-opacity="1" stop-color="white" offset="0%"/>
<stop stop-opacity="1" stop-color="white" offset="100%"/>
</linearGradient>
<linearGradient x1="94" x2="94" y1="236" gradientUnits="userSpaceOnUse" y2="256" xlink:type="simple" xlink:actuate="onLoad" id="linearGradient5" xlink:show="other" spreadMethod="pad">
<stop stop-opacity="1" stop-color="white" offset="0%"/>
<stop stop-opacity="1" stop-color="white" offset="100%"/>
</linearGradient>
<clipPath clipPathUnits="userSpaceOnUse" id="clipPath1">
<path d="M20 10 C14.4771 10 10 14.4772 10 20 L10 20 L10 276 C10 281.5228 14.4771 286 19.9999 286 C20 286 20 286 20 286 L20 286 L210 286 C215.5228 286 220 281.5228 220 276 L220 276 L220 20 C220 20 220 20 220 20 C220 14.4771 215.5228 10 210 10 C210 10 210 10 210 10 L20 10 L20 10 Z"/>
</clipPath>
<clipPath clipPathUnits="userSpaceOnUse" id="clipPath2">
<path d="M77 12 L155 12 L155 28 L77 28 L77 12 Z"/>
</clipPath>
<clipPath clipPathUnits="userSpaceOnUse" id="clipPath3">
<path d="M10 28 L222 28 L222 288 L10 288 L10 28 Z"/>
</clipPath>
<clipPath clipPathUnits="userSpaceOnUse" id="clipPath4">
<path d="M168 80 C168 80 168 80 168 80 L29 80 C23.4771 80 19 84.4772 19 90 L19 113 C19 118.5228 23.4771 123 29 123 C29 123 29 123 29 123 L29 123 L168 123 C173.5228 123 178 118.5228 178 113 L178 113 L178 90 C178 84.4771 173.5228 80 168 80 Z"/>
</clipPath>
<clipPath clipPathUnits="userSpaceOnUse" id="clipPath5">
<path d="M20 82 L180 82 L180 99 L20 99 L20 82 Z"/>
</clipPath>
<clipPath clipPathUnits="userSpaceOnUse" id="clipPath6">
<path d="M18 79 L180 79 L180 125 L18 125 L18 79 Z"/>
</clipPath>
<clipPath clipPathUnits="userSpaceOnUse" id="clipPath7">
<path d="M90 34 L90 53 L109 53 L109 34 Z"/>
</clipPath>
<clipPath clipPathUnits="userSpaceOnUse" id="clipPath8">
<path d="M31 37 L72 37 L72 54 L31 54 L31 37 Z"/>
</clipPath>
<clipPath clipPathUnits="userSpaceOnUse" id="clipPath9">
<path d="M48 158 C42.4771 158 38 162.4772 38 168 L38 191 C38 196.5228 42.4771 201 48 201 C48 201 48 201 48 201 L48 201 L150 201 C155.5228 201 160 196.5228 160 191 L160 191 L160 168 C160 168 160 168 160 168 C160 162.4771 155.5228 158 150 158 C150 158 150 158 150 158 L48 158 L48 158 Z"/>
</clipPath>
<clipPath clipPathUnits="userSpaceOnUse" id="clipPath10">
<path d="M39 160 L162 160 L162 177 L39 177 L39 160 Z"/>
</clipPath>
<clipPath clipPathUnits="userSpaceOnUse" id="clipPath11">
<path d="M37 157 L162 157 L162 203 L37 203 L37 157 Z"/>
</clipPath>
<clipPath clipPathUnits="userSpaceOnUse" id="clipPath12">
<path d="M94 236 L94 255 L113 255 L113 236 Z"/>
</clipPath>
<clipPath clipPathUnits="userSpaceOnUse" id="clipPath13">
<path d="M78 259 L141 259 L141 276 L78 276 L78 259 Z"/>
</clipPath>
<clipPath clipPathUnits="userSpaceOnUse" id="clipPath14">
<path d="M10 27 L222 27 L222 288 L10 288 L10 27 Z"/>
</clipPath>
<clipPath clipPathUnits="userSpaceOnUse" id="clipPath15">
<path d="M9 9 L222 9 L222 288 L9 288 L9 9 Z"/>
</clipPath>
<clipPath clipPathUnits="userSpaceOnUse" id="clipPath16">
<path d="M-1 -1 L232 -1 L232 298 L-1 298 L-1 -1 Z"/>
</clipPath>
<clipPath clipPathUnits="userSpaceOnUse" id="clipPath17">
<path d="M97 58 L103 58 L103 75 L97 75 L97 58 Z"/>
</clipPath>
<clipPath clipPathUnits="userSpaceOnUse" id="clipPath18">
<path d="M92 64 L105 64 L105 82 L92 82 L92 64 Z"/>
</clipPath>
<clipPath clipPathUnits="userSpaceOnUse" id="clipPath19">
<path d="M102 212 L108 212 L108 229 L102 229 L102 212 Z"/>
</clipPath>
<clipPath clipPathUnits="userSpaceOnUse" id="clipPath20">
<path d="M97 221 L110 221 L110 239 L97 239 L97 221 Z"/>
</clipPath>
<clipPath clipPathUnits="userSpaceOnUse" id="clipPath21">
<path d="M112 133 L150 133 L150 150 L112 150 L112 133 Z"/>
</clipPath>
<clipPath clipPathUnits="userSpaceOnUse" id="clipPath22">
<path d="M95 142 L108 142 L108 160 L95 160 L95 142 Z"/>
</clipPath>
</defs>
  <sodipodi:namedview bordercolor="#666666" inkscape:window-height="1005" inkscape:zoom="5.6" id="base" inkscape:current-layer="layer1" style="" inkscape:window-y="-9" inkscape:cy="21.696429" inkscape:window-x="-9" inkscape:cx="-0.034771143" showgrid="false" inkscape:pageopacity="0.0" inkscape:document-units="px" units="px" inkscape:pageshadow="2" inkscape:window-width="1920" pagecolor="#ffffff" borderopacity="1.0" inkscape:window-maximized="1"/>
  <metadata style="" id="metadata7">
    <rdf:RDF style="">
      <cc:Work rdf:about="" style="">
        <dc:format style="">image/svg+xml</dc:format>
        <dc:type style="" rdf:resource="http://purl.org/dc/dcmitype/StillImage"/>
        <dc:title style=""/>
      </cc:Work>
    </rdf:RDF>
  </metadata>
  <g inkscape:groupmode="layer" id="layer1" style="" transform="translate(0,-1032.3617)" inkscape:label="Calque 1">
    <path sodipodi:arg1="0.56068699" inkscape:flatsided="false" inkscape:randomized="0" sodipodi:type="star" d="M 17.5,14.821429 L 16.411844,16.226801 L 15.070423,17.392882 L 13.527285,18.274857 L 11.841734,18.838835 L 10.078543,19.063141 L 8.3054712,18.939156 L 6.5906569,18.471644 L 4.9999996,17.678572 L 3.5946269,16.590416 L 2.4285468,15.248994 L 1.5465709,13.705857 L 0.98259317,12.020305 L 0.75828691,10.257114 L 0.8822721,8.4840429 L 1.3497841,6.7692286 L 2.1428565,5.1785713 L 3.2310123,3.7731986 L 4.5724339,2.6071185 L 6.1155716,1.7251426 L 7.8011231,1.1611649 L 9.564314,0.93685861 L 11.337385,1.0608438 L 13.0522,1.5283558 L 14.642857,2.3214282 L 16.04823,3.409584 L 17.21431,4.7510056 L 18.096286,6.2941433 L 18.660263,7.9796948 L 18.88457,9.7428857 L 18.760584,11.515957 L 18.293073,13.230771 z" id="PapyrusPath" style="stroke-opacity:1; fill:black;fill-opacity:1;stroke:none" inkscape:rounded="0" transform="translate(0,1032.3617)" sodipodi:sides="16" sodipodi:r1="9.0667877" sodipodi:cx="9.8214283" sodipodi:cy="10" sodipodi:arg2="0.75703654" sodipodi:r2="9.0667877"/>
  </g>
</svg>
<g stroke-width="1.1" font-family="'Segoe UI'" stroke-linecap="butt">
<text xml:space="preserve" x="32" y="51" clip-path="url(#clipPath8)" stroke="none"> Initial1</text>
<rect x="38" y="158" clip-path="url(#clipPath9)" fill="url(#linearGradient4)" width="123" height="44" stroke="none"/>
<text xml:space="preserve" x="40" y="174" clip-path="url(#clipPath10)" stroke="none">MinimumTimeElapsed</text>
<rect x="38" y="158" clip-path="url(#clipPath11)" fill="none" width="122" rx="10" ry="10" height="43"/>
<rect x="94" y="236" clip-path="url(#clipPath12)" fill="url(#linearGradient5)" width="20" opacity="0" height="20" stroke="none"/>
</g>
<svg xmlns:rdf="http://www.w3.org/1999/02/22-rdf-syntax-ns#" xmlns:svg="http://www.w3.org/2000/svg" xmlns:sodipodi="http://sodipodi.sourceforge.net/DTD/sodipodi-0.dtd" xmlns:dc="http://purl.org/dc/elements/1.1/" xmlns:inkscape="http://www.inkscape.org/namespaces/inkscape" xmlns:cc="http://creativecommons.org/ns#" contentScriptType="text/ecmascript" zoomAndPan="magnify" contentStyleType="text/css" id="svg2" sodipodi:docname="round_with_dot.svg" style="" version="1.1" width="20" preserveAspectRatio="xMidYMid meet" inkscape:version="0.48.5 r10040" height="20" class="" x="94" y="236">
  <defs style="" id="defs4">
    <linearGradient xlink:type="simple" style="" xlink:actuate="onLoad" id="linearGradient3789" xlink:show="other">
      <stop id="stop3791" offset="0" style="stop-color:#000005;stop-opacity:1"/>
      <stop id="stop3793" offset="1" style=" stop-color:white;stop-opacity:0"/>
    </linearGradient>
    <inkscape:perspective inkscape:persp3d-origin="42.5 : 13.333333 : 1" style="" id="perspective3063" inkscape:vp_z="85 : 20 : 1" inkscape:vp_y="0 : 1000 : 0" inkscape:vp_x="0 : 20 : 1" sodipodi:type="inkscape:persp3d"/>
    <linearGradient xlink:type="simple" style="" xlink:actuate="onLoad" id="linearGradient3786" xlink:show="other">
      <stop id="stop3788" offset="0" style=" stop-color:black;stop-opacity:0"/>
      <stop id="stop3794" offset="1" style="stop-color:#919cd7;stop-opacity:1"/>
    </linearGradient>
  </defs>
  <sodipodi:namedview bordercolor="#666666" inkscape:window-height="1018" inkscape:zoom="5.6" id="base" inkscape:current-layer="layer1" style="" inkscape:window-y="-8" inkscape:cy="21.696429" inkscape:window-x="-8" inkscape:cx="-55.391914" showgrid="false" inkscape:pageopacity="0.0" inkscape:document-units="px" units="px" inkscape:pageshadow="2" inkscape:window-width="1920" pagecolor="#ffffff" borderopacity="1.0" inkscape:window-maximized="1"/>
  <metadata style="" id="metadata7">
    <rdf:RDF style="">
      <cc:Work rdf:about="" style="">
        <dc:format style="">image/svg+xml</dc:format>
        <dc:type style="" rdf:resource="http://purl.org/dc/dcmitype/StillImage"/>
        <dc:title style=""/>
      </cc:Work>
    </rdf:RDF>
  </metadata>
  <g inkscape:groupmode="layer" id="layer2" style="" inkscape:label="Calque">
    <path sodipodi:arg1="0.88367212" inkscape:flatsided="false" inkscape:randomized="0" sodipodi:type="star" d="M 15.714286,17.32143 L 14.245822,18.302415 L 12.614195,18.978067 L 10.882105,19.322423 L 9.1161164,19.322248 L 7.3840946,18.977549 L 5.7526012,18.301572 L 4.2843323,17.320296 L 3.0357139,16.071429 L 2.0547286,14.602966 L 1.379076,12.971338 L 1.0347205,11.239248 L 1.0348957,9.4732598 L 1.3795949,7.741238 L 2.0555712,6.1097446 L 3.0368478,4.6414757 L 4.285714,3.3928573 L 5.7541775,2.411872 L 7.385805,1.7362194 L 9.1178952,1.3918639 L 10.883884,1.3920391 L 12.615905,1.7367383 L 14.247399,2.4127146 L 15.715668,3.3939912 L 16.964286,4.6428574 L 17.945271,6.1113209 L 18.620924,7.7429484 L 18.96528,9.4750386 L 18.965104,11.241027 L 18.620405,12.973049 L 17.944429,14.604542 L 16.963152,16.072811 z" id="PapyrusPath" style="stroke-opacity:1; fill:white;fill-opacity:1; stroke:black" inkscape:rounded="0" transform="translate(0,-0.35714286)" sodipodi:sides="16" sodipodi:r1="9.0085707" sodipodi:cx="10" sodipodi:cy="10.357143" sodipodi:arg2="1.0800217" sodipodi:r2="9.0085707"/>
  </g>
  <g inkscape:groupmode="layer" id="layer1" style="" transform="translate(0,-1032.3617)" inkscape:label="Calque 1">
    <path transform="matrix(0.22784801,0,0,0.24489499,6.8670899,1039.3515)" style="stroke-opacity:1;stroke-linejoin:round;stroke-dasharray:none;stroke-width:8.4667635;fill:none; stroke:black;stroke-linecap:round;stroke-miterlimit:4" sodipodi:cx="13.75" sodipodi:cy="13.75" id="dot" sodipodi:rx="3.9285715" d="M 17.678571,13.75 A 3.9285715,3.75 0 1 1 9.8214285,13.75 A 3.9285715,3.75 0 1 1 17.678571,13.75 z" sodipodi:ry="3.75" sodipodi:type="arc"/>
    <path transform="matrix(0.35510429,0,0,0.38167224,5.117316,1037.4709)" style="stroke-opacity:1;stroke-linejoin:round;stroke-dasharray:none;stroke-width:8.4667635;fill:none; stroke:black;stroke-linecap:round;stroke-miterlimit:4" sodipodi:cx="13.75" sodipodi:cy="13.75" id="dot-1" sodipodi:rx="3.9285715" d="M 17.678571,13.75 A 3.9285715,3.75 0 1 1 9.8214285,13.75 A 3.9285715,3.75 0 1 1 17.678571,13.75 z" sodipodi:ry="3.75" sodipodi:type="arc"/>
    <path transform="matrix(0.50539052,0,0,0.54320248,3.0508804,1035.2498)" style="stroke-opacity:1;stroke-linejoin:round;stroke-dasharray:none;stroke-width:8.4667635;fill:none; stroke:black;stroke-linecap:round;stroke-miterlimit:4" sodipodi:cx="13.75" sodipodi:cy="13.75" id="dot-1-7" sodipodi:rx="3.9285715" d="M 17.678571,13.75 A 3.9285715,3.75 0 1 1 9.8214285,13.75 A 3.9285715,3.75 0 1 1 17.678571,13.75 z" sodipodi:ry="3.75" sodipodi:type="arc"/>
    <path transform="matrix(0.60200309,0,0,0.64704335,1.7224575,1033.4649)" style="stroke-opacity:1;stroke-linejoin:round;stroke-dasharray:none;stroke-width:8.4667635;fill:none; stroke:black;stroke-linecap:round;stroke-miterlimit:4" sodipodi:cx="13.75" sodipodi:cy="13.75" id="dot-1-7-4" sodipodi:rx="3.9285715" d="M 17.678571,13.75 A 3.9285715,3.75 0 1 1 9.8214285,13.75 A 3.9285715,3.75 0 1 1 17.678571,13.75 z" sodipodi:ry="3.75" sodipodi:type="arc"/>
  </g>
</svg>
<g stroke-width="1.1" font-family="'Segoe UI'" stroke-linecap="butt">
<text xml:space="preserve" x="79" y="273" clip-path="url(#clipPath13)" stroke="none"> FinalState1</text>
<line clip-path="url(#clipPath14)" fill="none" x1="11" x2="222" y1="28" y2="28" stroke="rgb(176,176,176)"/>
<rect x="10" y="10" clip-path="url(#clipPath15)" fill="none" width="210" rx="10" ry="10" height="276" stroke="rgb(176,176,176)"/>
<line clip-path="url(#clipPath16)" fill="none" text-rendering="optimizeLegibility" x1="98" x2="98" y1="52" y2="80"/>
<text x="98" y="72" clip-path="url(#clipPath17)" text-rendering="optimizeLegibility" stroke="none" xml:space="preserve"> </text>
<line clip-path="url(#clipPath18)" fill="none" text-rendering="optimizeLegibility" x1="93" x2="98" y1="65" y2="80"/>
<line clip-path="url(#clipPath18)" fill="none" text-rendering="optimizeLegibility" x1="98" x2="103" y1="80" y2="65"/>
<line clip-path="url(#clipPath16)" fill="none" text-rendering="optimizeLegibility" x1="103" x2="103" y1="202" y2="237"/>
<text x="103" y="226" clip-path="url(#clipPath19)" text-rendering="optimizeLegibility" stroke="none" xml:space="preserve"> </text>
<line clip-path="url(#clipPath20)" fill="none" text-rendering="optimizeLegibility" x1="98" x2="103" y1="222" y2="237"/>
<line clip-path="url(#clipPath20)" fill="none" text-rendering="optimizeLegibility" x1="103" x2="108" y1="237" y2="222"/>
<line clip-path="url(#clipPath16)" fill="none" text-rendering="optimizeLegibility" x1="101" x2="101" y1="124" y2="158"/>
<text x="113" y="147" clip-path="url(#clipPath21)" text-rendering="optimizeLegibility" stroke="none" xml:space="preserve">after ...</text>
<line clip-path="url(#clipPath22)" fill="none" text-rendering="optimizeLegibility" x1="96" x2="101" y1="143" y2="158"/>
<line clip-path="url(#clipPath22)" fill="none" text-rendering="optimizeLegibility" x1="101" x2="106" y1="158" y2="143"/>
<line clip-path="url(#clipPath16)" fill="none" text-rendering="optimizeLegibility" x1="98" x2="98" y1="52" y2="80"/>
<text x="98" y="72" clip-path="url(#clipPath17)" text-rendering="optimizeLegibility" stroke="none" xml:space="preserve"> </text>
<line clip-path="url(#clipPath18)" fill="none" text-rendering="optimizeLegibility" x1="93" x2="98" y1="65" y2="80"/>
<line clip-path="url(#clipPath18)" fill="none" text-rendering="optimizeLegibility" x1="98" x2="103" y1="80" y2="65"/>
<line clip-path="url(#clipPath16)" fill="none" text-rendering="optimizeLegibility" x1="101" x2="101" y1="124" y2="158"/>
<text x="113" y="147" clip-path="url(#clipPath21)" text-rendering="optimizeLegibility" stroke="none" xml:space="preserve">after ...</text>
<line clip-path="url(#clipPath22)" fill="none" text-rendering="optimizeLegibility" x1="96" x2="101" y1="143" y2="158"/>
<line clip-path="url(#clipPath22)" fill="none" text-rendering="optimizeLegibility" x1="101" x2="106" y1="158" y2="143"/>
<line clip-path="url(#clipPath16)" fill="none" text-rendering="optimizeLegibility" x1="103" x2="103" y1="202" y2="237"/>
<text x="103" y="226" clip-path="url(#clipPath19)" text-rendering="optimizeLegibility" stroke="none" xml:space="preserve"> </text>
<line clip-path="url(#clipPath20)" fill="none" text-rendering="optimizeLegibility" x1="98" x2="103" y1="222" y2="237"/>
<line clip-path="url(#clipPath20)" fill="none" text-rendering="optimizeLegibility" x1="103" x2="108" y1="237" y2="222"/>
</g>
</g>
</svg>
