<?xml version="1.0" encoding="UTF-8"?><svg xmlns="http://www.w3.org/2000/svg" xmlns:xlink="http://www.w3.org/1999/xlink" stroke-dasharray="none" shape-rendering="auto" font-family="'Dialog'" width="741" text-rendering="auto" fill-opacity="1" contentScriptType="text/ecmascript" color-interpolation="auto" color-rendering="auto" preserveAspectRatio="xMidYMid meet" font-size="12" viewBox="0 0 741 229" fill="black" stroke="black" image-rendering="auto" stroke-miterlimit="10" zoomAndPan="magnify" version="1.0" stroke-linecap="square" stroke-linejoin="miter" contentStyleType="text/css" font-style="normal" height="229" stroke-width="1" stroke-dashoffset="0" font-weight="normal" stroke-opacity="1">
<!--Generated by the Batik Graphics2D SVG Generator-->
<defs id="genericDefs"/>
<g>
<defs id="defs1">
<linearGradient x1="262" x2="262" y1="49" gradientUnits="userSpaceOnUse" y2="219" xlink:type="simple" xlink:actuate="onLoad" id="linearGradient1" xlink:show="other" spreadMethod="pad">
<stop stop-opacity="1" stop-color="white" offset="0%"/>
<stop stop-opacity="1" stop-color="white" offset="100%"/>
</linearGradient>
<linearGradient x1="10" x2="10" y1="17" gradientUnits="userSpaceOnUse" y2="100" xlink:type="simple" xlink:actuate="onLoad" id="linearGradient2" xlink:show="other" spreadMethod="pad">
<stop stop-opacity="1" stop-color="white" offset="0%"/>
<stop stop-opacity="1" stop-color="white" offset="100%"/>
</linearGradient>
<linearGradient x1="606" x2="606" y1="10" gradientUnits="userSpaceOnUse" y2="92" xlink:type="simple" xlink:actuate="onLoad" id="linearGradient3" xlink:show="other" spreadMethod="pad">
<stop stop-opacity="1" stop-color="white" offset="0%"/>
<stop stop-opacity="1" stop-color="white" offset="100%"/>
</linearGradient>
<clipPath clipPathUnits="userSpaceOnUse" id="clipPath1">
<path d="M259 46 L536 46 L536 227 L259 227 L259 46 Z"/>
</clipPath>
<clipPath clipPathUnits="userSpaceOnUse" id="clipPath2">
<path d="M262 49 L262 218 L527 218 L527 49 Z"/>
</clipPath>
<clipPath clipPathUnits="userSpaceOnUse" id="clipPath3">
<path d="M376 51 L416 51 L416 78 L376 78 L376 51 Z"/>
</clipPath>
<clipPath clipPathUnits="userSpaceOnUse" id="clipPath4">
<path d="M267 79 L519 79 L519 106 L267 106 L267 79 Z"/>
</clipPath>
<clipPath clipPathUnits="userSpaceOnUse" id="clipPath5">
<path d="M267 104 L472 104 L472 131 L267 131 L267 104 Z"/>
</clipPath>
<clipPath clipPathUnits="userSpaceOnUse" id="clipPath6">
<path d="M267 129 L418 129 L418 156 L267 156 L267 129 Z"/>
</clipPath>
<clipPath clipPathUnits="userSpaceOnUse" id="clipPath7">
<path d="M267 154 L453 154 L453 181 L267 181 L267 154 Z"/>
</clipPath>
<clipPath clipPathUnits="userSpaceOnUse" id="clipPath8">
<path d="M262 77 L529 77 L529 183 L262 183 L262 77 Z"/>
</clipPath>
<clipPath clipPathUnits="userSpaceOnUse" id="clipPath9">
<path d="M267 184 L481 184 L481 211 L267 211 L267 184 Z"/>
</clipPath>
<clipPath clipPathUnits="userSpaceOnUse" id="clipPath10">
<path d="M262 182 L529 182 L529 219 L262 219 L262 182 Z"/>
</clipPath>
<clipPath clipPathUnits="userSpaceOnUse" id="clipPath11">
<path d="M261 48 L529 48 L529 220 L261 220 L261 48 Z"/>
</clipPath>
<clipPath clipPathUnits="userSpaceOnUse" id="clipPath12">
<path d="M7 14 L220 14 L220 108 L7 108 L7 14 Z"/>
</clipPath>
<clipPath clipPathUnits="userSpaceOnUse" id="clipPath13">
<path d="M10 17 L10 99 L211 99 L211 17 Z"/>
</clipPath>
<clipPath clipPathUnits="userSpaceOnUse" id="clipPath14">
<path d="M64 19 L160 19 L160 46 L64 46 L64 19 Z"/>
</clipPath>
<clipPath clipPathUnits="userSpaceOnUse" id="clipPath15">
<path d="M88 45 L136 45 L136 72 L88 72 L88 45 Z"/>
</clipPath>
<clipPath clipPathUnits="userSpaceOnUse" id="clipPath16">
<path d="M15 73 L209 73 L209 100 L15 100 L15 73 Z"/>
</clipPath>
<clipPath clipPathUnits="userSpaceOnUse" id="clipPath17">
<path d="M10 71 L213 71 L213 101 L10 101 L10 71 Z"/>
</clipPath>
<clipPath clipPathUnits="userSpaceOnUse" id="clipPath18">
<path d="M9 16 L213 16 L213 101 L9 101 L9 16 Z"/>
</clipPath>
<clipPath clipPathUnits="userSpaceOnUse" id="clipPath19">
<path d="M603 7 L739 7 L739 100 L603 100 L603 7 Z"/>
</clipPath>
<clipPath clipPathUnits="userSpaceOnUse" id="clipPath20">
<path d="M606 10 L606 91 L730 91 L730 10 Z"/>
</clipPath>
<clipPath clipPathUnits="userSpaceOnUse" id="clipPath21">
<path d="M621 12 L717 12 L717 39 L621 39 L621 12 Z"/>
</clipPath>
<clipPath clipPathUnits="userSpaceOnUse" id="clipPath22">
<path d="M650 38 L689 38 L689 65 L650 65 L650 38 Z"/>
</clipPath>
<clipPath clipPathUnits="userSpaceOnUse" id="clipPath23">
<path d="M611 66 L728 66 L728 93 L611 93 L611 66 Z"/>
</clipPath>
<clipPath clipPathUnits="userSpaceOnUse" id="clipPath24">
<path d="M606 64 L732 64 L732 93 L606 93 L606 64 Z"/>
</clipPath>
<clipPath clipPathUnits="userSpaceOnUse" id="clipPath25">
<path d="M605 9 L732 9 L732 93 L605 93 L605 9 Z"/>
</clipPath>
<clipPath clipPathUnits="userSpaceOnUse" id="clipPath26">
<path d="M-1 -1 L742 -1 L742 230 L-1 230 L-1 -1 Z"/>
</clipPath>
<clipPath clipPathUnits="userSpaceOnUse" id="clipPath27">
<path d="M105 99 L118 99 L118 117 L105 117 L105 99 Z"/>
</clipPath>
<clipPath clipPathUnits="userSpaceOnUse" id="clipPath28">
<path d="M659 91 L672 91 L672 109 L659 109 L659 91 Z"/>
</clipPath>
</defs>
<g stroke-miterlimit="0" stroke-width="0" font-family="'Segoe UI'" stroke-linejoin="round">
<rect x="267" y="54" clip-path="url(#clipPath1)" width="266" rx="0" opacity="0.502" ry="0" height="170" stroke="none"/>
<rect x="262" y="49" clip-path="url(#clipPath2)" fill="url(#linearGradient1)" width="266" height="170" stroke="none"/>
<text x="377" font-size="19" y="73" clip-path="url(#clipPath3)" stroke="none" xml:space="preserve">FIFO</text>
<text x="268" font-size="19" y="101" clip-path="url(#clipPath4)" stroke="none" xml:space="preserve"> + numberOfItems: Integer [1]</text>
<text x="268" font-size="19" y="126" clip-path="url(#clipPath5)" stroke="none" xml:space="preserve"> + MAX_SIZE: Integer [1]</text>
</g>
<g stroke-width="0.1" font-size="19" font-family="'Segoe UI'" stroke-linecap="butt">
<line clip-path="url(#clipPath5)" fill="none" x1="268" x2="471" y1="126" y2="126"/>
<text xml:space="preserve" x="268" y="151" clip-path="url(#clipPath6)" stroke="none"> + queue: Data [*]</text>
<text xml:space="preserve" x="268" y="176" clip-path="url(#clipPath7)" stroke="none"> + isValid: Boolean [1]</text>
<line clip-path="url(#clipPath8)" fill="none" x1="262" x2="528" y1="78" y2="78" stroke-width="1.1"/>
<text x="268" y="206" clip-path="url(#clipPath9)" stroke="none" stroke-width="1.1" xml:space="preserve"> + isQueueFull(): Boolean</text>
<line clip-path="url(#clipPath10)" fill="none" x1="262" x2="528" y1="183" y2="183" stroke-width="1.1"/>
<rect x="262" y="49" clip-path="url(#clipPath11)" fill="none" width="265" rx="0" ry="0" height="169" stroke-width="1.1"/>
<rect x="15" y="22" clip-path="url(#clipPath12)" width="202" rx="0" opacity="0.502" ry="0" height="83" stroke="none" stroke-width="1.1"/>
</g>
<g fill="url(#linearGradient2)" stroke-width="1.1" font-family="'Segoe UI'" stroke-linecap="butt" stroke="url(#linearGradient2)">
<rect x="10" y="17" clip-path="url(#clipPath13)" width="202" height="83" stroke="none"/>
<text x="65" font-size="19" y="41" clip-path="url(#clipPath14)" fill="black" stroke="none" xml:space="preserve">«Interface»</text>
<text x="89" font-size="19" y="67" clip-path="url(#clipPath15)" fill="black" stroke="none" xml:space="preserve">IPush</text>
<text x="16" font-size="19" y="95" clip-path="url(#clipPath16)" fill="black" stroke="none" xml:space="preserve"> + push(  in item: Data)</text>
<line clip-path="url(#clipPath17)" fill="none" x1="10" x2="212" y1="72" y2="72" stroke="black"/>
<rect x="10" y="17" clip-path="url(#clipPath18)" fill="none" width="201" rx="0" ry="0" height="82" stroke="black"/>
<rect x="611" y="15" clip-path="url(#clipPath19)" fill="black" width="125" rx="0" opacity="0.502" ry="0" height="82" stroke="none"/>
<rect x="606" y="10" clip-path="url(#clipPath20)" fill="url(#linearGradient3)" width="125" height="82" stroke="none"/>
<text x="622" font-size="19" y="34" clip-path="url(#clipPath21)" fill="black" stroke="none" xml:space="preserve">«Interface»</text>
<text x="651" font-size="19" y="60" clip-path="url(#clipPath22)" fill="black" stroke="none" xml:space="preserve">IPull</text>
<text x="612" font-size="19" y="88" clip-path="url(#clipPath23)" fill="black" stroke="none" xml:space="preserve"> + pull(): Data</text>
<line clip-path="url(#clipPath24)" fill="none" x1="606" x2="731" y1="65" y2="65" stroke="black"/>
<rect x="606" y="10" clip-path="url(#clipPath25)" fill="none" width="124" rx="0" ry="0" height="81" stroke="black"/>
</g>
<g text-rendering="optimizeLegibility" stroke-width="1.1" stroke-dasharray="5,5,5,5,5,5,5,5,5,5" font-family="'Segoe UI'" stroke-linecap="butt">
<line clip-path="url(#clipPath26)" fill="none" x1="262" x2="111" y1="151" y2="151"/>
<line clip-path="url(#clipPath26)" fill="none" x1="111" x2="111" y1="151" y2="100"/>
<polygon fill="white" clip-path="url(#clipPath27)" points=" 111 100 116 115 106 115" stroke="none"/>
<polygon fill="none" stroke-dasharray="none" clip-path="url(#clipPath27)" points=" 111 100 116 115 106 115"/>
<line clip-path="url(#clipPath26)" fill="none" x1="528" x2="665" y1="143" y2="143"/>
<line clip-path="url(#clipPath26)" fill="none" x1="665" x2="665" y1="143" y2="120"/>
<line clip-path="url(#clipPath26)" fill="none" x1="665" x2="665" y1="120" y2="92"/>
<polygon fill="white" clip-path="url(#clipPath28)" points=" 665 92 670 107 660 107" stroke="none"/>
<polygon fill="none" stroke-dasharray="none" clip-path="url(#clipPath28)" points=" 665 92 670 107 660 107"/>
</g>
</g>
</svg>
