<?xml version="1.0" encoding="UTF-8"?><svg xmlns="http://www.w3.org/2000/svg" xmlns:xlink="http://www.w3.org/1999/xlink" stroke-dasharray="none" shape-rendering="auto" font-family="'Dialog'" width="320" text-rendering="auto" fill-opacity="1" contentScriptType="text/ecmascript" color-interpolation="auto" color-rendering="auto" preserveAspectRatio="xMidYMid meet" font-size="12" viewBox="0 0 320 162" fill="black" stroke="black" image-rendering="auto" stroke-miterlimit="10" zoomAndPan="magnify" version="1.0" stroke-linecap="square" stroke-linejoin="miter" contentStyleType="text/css" font-style="normal" height="162" stroke-width="1" stroke-dashoffset="0" font-weight="normal" stroke-opacity="1">
<!--Generated by the Batik Graphics2D SVG Generator-->
<defs id="genericDefs"/>
<g>
<g fill="url(#linearGradient1)" font-family="'Segoe UI'" stroke-linejoin="round" stroke="url(#linearGradient1)" stroke-width="0" stroke-miterlimit="0">
<rect x="10" y="10" clip-path="url(#clipPath1)" width="299" height="142" stroke="none"/>
<text x="93" y="26" clip-path="url(#clipPath2)" fill="black" stroke="none" xml:space="preserve">TrafficLightStateMachine</text>
<rect x="11" y="30" clip-path="url(#clipPath3)" fill="white" width="299" height="122" stroke="none"/>
<rect x="22" y="41" clip-path="url(#clipPath4)" fill="url(#linearGradient2)" width="20" opacity="0" height="20" stroke="none"/>
</g>
<svg xmlns:rdf="http://www.w3.org/1999/02/22-rdf-syntax-ns#" xmlns:svg="http://www.w3.org/2000/svg" xmlns:sodipodi="http://sodipodi.sourceforge.net/DTD/sodipodi-0.dtd" xmlns:dc="http://purl.org/dc/elements/1.1/" xmlns:inkscape="http://www.inkscape.org/namespaces/inkscape" xmlns:cc="http://creativecommons.org/ns#" contentScriptType="text/ecmascript" zoomAndPan="magnify" contentStyleType="text/css" id="svg2" sodipodi:docname="round_full.svg" style="" version="1.1" width="20" preserveAspectRatio="xMidYMid meet" inkscape:version="0.48.5 r10040" height="20" class="" x="22" y="41">
  <defs style="" id="defs4">
    <linearGradient xlink:type="simple" style="" xlink:actuate="onLoad" id="linearGradient3789" xlink:show="other">
      <stop id="stop3791" offset="0" style="stop-color:#000005;stop-opacity:1"/>
      <stop id="stop3793" offset="1" style="  stop-color:black;stop-opacity:0"/>
    </linearGradient>
    <inkscape:perspective inkscape:persp3d-origin="42.5 : 13.333333 : 1" style="" id="perspective3063" inkscape:vp_z="85 : 20 : 1" inkscape:vp_y="0 : 1000 : 0" inkscape:vp_x="0 : 20 : 1" sodipodi:type="inkscape:persp3d"/>
    <linearGradient xlink:type="simple" style="" xlink:actuate="onLoad" id="linearGradient3786" xlink:show="other">
      <stop id="stop3788" offset="0" style=" stop-color:black;stop-opacity:0"/>
      <stop id="stop3794" offset="1" style="stop-color:#919cd7;stop-opacity:1"/>
    </linearGradient>
  <linearGradient x1="10" x2="10" y1="10" gradientUnits="userSpaceOnUse" y2="152" xlink:type="simple" xlink:actuate="onLoad" id="linearGradient1" xlink:show="other" spreadMethod="pad">
<stop stop-opacity="1" stop-color="white" offset="0%"/>
<stop stop-opacity="1" stop-color="white" offset="100%"/>
</linearGradient>
<linearGradient x1="22" x2="22" y1="41" gradientUnits="userSpaceOnUse" y2="61" xlink:type="simple" xlink:actuate="onLoad" id="linearGradient2" xlink:show="other" spreadMethod="pad">
<stop stop-opacity="1" stop-color="black" offset="0%"/>
<stop stop-opacity="1" stop-color="black" offset="100%"/>
</linearGradient>
<linearGradient x1="82" x2="82" y1="36" gradientUnits="userSpaceOnUse" y2="71" xlink:type="simple" xlink:actuate="onLoad" id="linearGradient3" xlink:show="other" spreadMethod="pad">
<stop stop-opacity="1" stop-color="white" offset="0%"/>
<stop stop-opacity="1" stop-color="white" offset="100%"/>
</linearGradient>
<linearGradient x1="74" x2="74" y1="111" gradientUnits="userSpaceOnUse" y2="141" xlink:type="simple" xlink:actuate="onLoad" id="linearGradient4" xlink:show="other" spreadMethod="pad">
<stop stop-opacity="1" stop-color="white" offset="0%"/>
<stop stop-opacity="1" stop-color="white" offset="100%"/>
</linearGradient>
<linearGradient x1="221" x2="221" y1="35" gradientUnits="userSpaceOnUse" y2="72" xlink:type="simple" xlink:actuate="onLoad" id="linearGradient5" xlink:show="other" spreadMethod="pad">
<stop stop-opacity="1" stop-color="white" offset="0%"/>
<stop stop-opacity="1" stop-color="white" offset="100%"/>
</linearGradient>
<linearGradient x1="222" x2="222" y1="108" gradientUnits="userSpaceOnUse" y2="145" xlink:type="simple" xlink:actuate="onLoad" id="linearGradient6" xlink:show="other" spreadMethod="pad">
<stop stop-opacity="1" stop-color="white" offset="0%"/>
<stop stop-opacity="1" stop-color="white" offset="100%"/>
</linearGradient>
<clipPath clipPathUnits="userSpaceOnUse" id="clipPath1">
<path d="M20 10 C14.4771 10 10 14.4772 10 20 L10 20 L10 141 C10 146.5228 14.4771 151 20 151 C20 151 20 151 20 151 L20 151 L298 151 C303.5228 151 308 146.5228 308 141 L308 141 L308 20 C308 20 308 20 308 20 C308 14.4771 303.5228 10 298 10 C298 10 298 10 298 10 L20 10 L20 10 Z"/>
</clipPath>
<clipPath clipPathUnits="userSpaceOnUse" id="clipPath2">
<path d="M92 12 L228 12 L228 29 L92 29 L92 12 Z"/>
</clipPath>
<clipPath clipPathUnits="userSpaceOnUse" id="clipPath3">
<path d="M10 29 L310 29 L310 153 L10 153 L10 29 Z"/>
</clipPath>
<clipPath clipPathUnits="userSpaceOnUse" id="clipPath4">
<path d="M22 41 L22 60 L41 60 L41 41 Z"/>
</clipPath>
<clipPath clipPathUnits="userSpaceOnUse" id="clipPath5">
<path d="M36 63 L77 63 L77 80 L36 80 L36 63 Z"/>
</clipPath>
<clipPath clipPathUnits="userSpaceOnUse" id="clipPath6">
<path d="M111 36 C111 36 111 36 111 36 L92 36 C86.4771 36 82 40.4772 82 46 L82 46 L82 60 C82 65.5229 86.4772 70 92 70 L111 70 C116.5228 70 121 65.5228 121 60 L121 60 L121 46 C121 46 121 46 121 46 C121 40.4771 116.5228 36 111 36 Z"/>
</clipPath>
<clipPath clipPathUnits="userSpaceOnUse" id="clipPath7">
<path d="M91 38 L114 38 L114 55 L91 55 L91 38 Z"/>
</clipPath>
<clipPath clipPathUnits="userSpaceOnUse" id="clipPath8">
<path d="M81 35 L123 35 L123 72 L81 72 L81 35 Z"/>
</clipPath>
<clipPath clipPathUnits="userSpaceOnUse" id="clipPath9">
<path d="M84 111 C78.4771 111 74 115.4772 74 121 L74 130 C74 135.5229 78.4772 140 84 140 L125 140 C130.5228 140 135 135.5228 135 130 L135 121 C135 121 135 121 135 121 C135 115.4771 130.5228 111 125 111 C125 111 125 111 125 111 L84 111 L84 111 Z"/>
</clipPath>
<clipPath clipPathUnits="userSpaceOnUse" id="clipPath10">
<path d="M75 113 L137 113 L137 130 L75 130 L75 113 Z"/>
</clipPath>
<clipPath clipPathUnits="userSpaceOnUse" id="clipPath11">
<path d="M73 110 L137 110 L137 142 L73 142 L73 110 Z"/>
</clipPath>
<clipPath clipPathUnits="userSpaceOnUse" id="clipPath12">
<path d="M250 35 C250 35 250 35 250 35 L231 35 C225.4771 35 221 39.4772 221 45 L221 45 L221 61 C221 66.5229 225.4772 71 231 71 L250 71 C255.5228 71 260 66.5228 260 61 L260 45 C260 45 260 45 260 45 C260 39.4771 255.5228 35 250 35 Z"/>
</clipPath>
<clipPath clipPathUnits="userSpaceOnUse" id="clipPath13">
<path d="M223 37 L260 37 L260 54 L223 54 L223 37 Z"/>
</clipPath>
<clipPath clipPathUnits="userSpaceOnUse" id="clipPath14">
<path d="M220 34 L262 34 L262 73 L220 73 L220 34 Z"/>
</clipPath>
<clipPath clipPathUnits="userSpaceOnUse" id="clipPath15">
<path d="M232 108 C226.4771 108 222 112.4772 222 118 L222 118 L222 134 C222 139.5229 226.4772 144 232 144 L251 144 C256.5228 144 261 139.5228 261 134 L261 118 C261 118 261 118 261 118 C261 112.4771 256.5229 108 251 108 C251 108 251 108 251 108 L232 108 L232 108 Z"/>
</clipPath>
<clipPath clipPathUnits="userSpaceOnUse" id="clipPath16">
<path d="M226 110 L259 110 L259 127 L226 127 L226 110 Z"/>
</clipPath>
<clipPath clipPathUnits="userSpaceOnUse" id="clipPath17">
<path d="M221 107 L263 107 L263 146 L221 146 L221 107 Z"/>
</clipPath>
<clipPath clipPathUnits="userSpaceOnUse" id="clipPath18">
<path d="M10 28 L310 28 L310 153 L10 153 L10 28 Z"/>
</clipPath>
<clipPath clipPathUnits="userSpaceOnUse" id="clipPath19">
<path d="M9 9 L310 9 L310 153 L9 153 L9 9 Z"/>
</clipPath>
<clipPath clipPathUnits="userSpaceOnUse" id="clipPath20">
<path d="M-1 -1 L321 -1 L321 163 L-1 163 L-1 -1 Z"/>
</clipPath>
<clipPath clipPathUnits="userSpaceOnUse" id="clipPath21">
<path d="M108 77 L186 77 L186 94 L108 94 L108 77 Z"/>
</clipPath>
<clipPath clipPathUnits="userSpaceOnUse" id="clipPath22">
<path d="M96 95 L109 95 L109 113 L96 113 L96 95 Z"/>
</clipPath>
<clipPath clipPathUnits="userSpaceOnUse" id="clipPath23">
<path d="M167 39 L206 39 L206 56 L167 56 L167 39 Z"/>
</clipPath>
<clipPath clipPathUnits="userSpaceOnUse" id="clipPath24">
<path d="M121 48 L139 48 L139 61 L121 61 L121 48 Z"/>
</clipPath>
<clipPath clipPathUnits="userSpaceOnUse" id="clipPath25">
<path d="M245 84 L298 84 L298 101 L245 101 L245 84 Z"/>
</clipPath>
<clipPath clipPathUnits="userSpaceOnUse" id="clipPath26">
<path d="M231 71 L244 71 L244 89 L231 89 L231 71 Z"/>
</clipPath>
<clipPath clipPathUnits="userSpaceOnUse" id="clipPath27">
<path d="M60 43 L66 43 L66 60 L60 60 L60 43 Z"/>
</clipPath>
<clipPath clipPathUnits="userSpaceOnUse" id="clipPath28">
<path d="M66 45 L84 45 L84 58 L66 58 L66 45 Z"/>
</clipPath>
<clipPath clipPathUnits="userSpaceOnUse" id="clipPath29">
<path d="M153 115 L202 115 L202 132 L153 132 L153 115 Z"/>
</clipPath>
<clipPath clipPathUnits="userSpaceOnUse" id="clipPath30">
<path d="M206 127 L224 127 L224 140 L206 140 L206 127 Z"/>
</clipPath>
</defs>
  <sodipodi:namedview bordercolor="#666666" inkscape:window-height="1005" inkscape:zoom="5.6" id="base" inkscape:current-layer="layer1" style="" inkscape:window-y="-9" inkscape:cy="21.696429" inkscape:window-x="-9" inkscape:cx="-0.034771143" showgrid="false" inkscape:pageopacity="0.0" inkscape:document-units="px" units="px" inkscape:pageshadow="2" inkscape:window-width="1920" pagecolor="#ffffff" borderopacity="1.0" inkscape:window-maximized="1"/>
  <metadata style="" id="metadata7">
    <rdf:RDF style="">
      <cc:Work rdf:about="" style="">
        <dc:format style="">image/svg+xml</dc:format>
        <dc:type style="" rdf:resource="http://purl.org/dc/dcmitype/StillImage"/>
        <dc:title style=""/>
      </cc:Work>
    </rdf:RDF>
  </metadata>
  <g inkscape:groupmode="layer" id="layer1" style="" transform="translate(0,-1032.3617)" inkscape:label="Calque 1">
    <path sodipodi:arg1="0.56068699" inkscape:flatsided="false" inkscape:randomized="0" sodipodi:type="star" d="M 17.5,14.821429 L 16.411844,16.226801 L 15.070423,17.392882 L 13.527285,18.274857 L 11.841734,18.838835 L 10.078543,19.063141 L 8.3054712,18.939156 L 6.5906569,18.471644 L 4.9999996,17.678572 L 3.5946269,16.590416 L 2.4285468,15.248994 L 1.5465709,13.705857 L 0.98259317,12.020305 L 0.75828691,10.257114 L 0.8822721,8.4840429 L 1.3497841,6.7692286 L 2.1428565,5.1785713 L 3.2310123,3.7731986 L 4.5724339,2.6071185 L 6.1155716,1.7251426 L 7.8011231,1.1611649 L 9.564314,0.93685861 L 11.337385,1.0608438 L 13.0522,1.5283558 L 14.642857,2.3214282 L 16.04823,3.409584 L 17.21431,4.7510056 L 18.096286,6.2941433 L 18.660263,7.9796948 L 18.88457,9.7428857 L 18.760584,11.515957 L 18.293073,13.230771 z" id="PapyrusPath" style="stroke-opacity:1; fill:black;fill-opacity:1;stroke:none" inkscape:rounded="0" transform="translate(0,1032.3617)" sodipodi:sides="16" sodipodi:r1="9.0667877" sodipodi:cx="9.8214283" sodipodi:cy="10" sodipodi:arg2="0.75703654" sodipodi:r2="9.0667877"/>
  </g>
</svg>
<g stroke-miterlimit="0" stroke-width="0" font-family="'Segoe UI'" stroke-linejoin="round">
<text xml:space="preserve" x="37" y="77" clip-path="url(#clipPath5)" stroke="none"> Initial1</text>
<rect x="82" y="36" clip-path="url(#clipPath6)" fill="url(#linearGradient3)" width="40" height="35" stroke="none"/>
<text xml:space="preserve" x="92" y="52" clip-path="url(#clipPath7)" stroke="none">Red</text>
</g>
<g stroke-width="1.1" font-family="'Segoe UI'" stroke-linecap="butt">
<rect x="82" y="36" clip-path="url(#clipPath8)" fill="none" width="39" rx="10" ry="10" height="34"/>
<rect x="74" y="111" clip-path="url(#clipPath9)" fill="url(#linearGradient4)" width="62" height="30" stroke="none"/>
<text xml:space="preserve" x="76" y="127" clip-path="url(#clipPath10)" stroke="none">Red_Yellow</text>
<rect x="74" y="111" clip-path="url(#clipPath11)" fill="none" width="61" rx="10" ry="10" height="29"/>
<rect x="221" y="35" clip-path="url(#clipPath12)" fill="url(#linearGradient5)" width="40" height="37" stroke="none"/>
<text xml:space="preserve" x="224" y="51" clip-path="url(#clipPath13)" stroke="none">Yellow</text>
<rect x="221" y="35" clip-path="url(#clipPath14)" fill="none" width="39" rx="10" ry="10" height="36"/>
<rect x="222" y="108" clip-path="url(#clipPath15)" fill="url(#linearGradient6)" width="40" height="37" stroke="none"/>
<text xml:space="preserve" x="227" y="124" clip-path="url(#clipPath16)" stroke="none">Green</text>
<rect x="222" y="108" clip-path="url(#clipPath17)" fill="none" width="39" rx="10" ry="10" height="36"/>
<line clip-path="url(#clipPath18)" fill="none" x1="11" x2="310" y1="29" y2="29"/>
<rect x="10" y="10" clip-path="url(#clipPath19)" fill="none" width="298" rx="10" ry="10" height="141"/>
<line clip-path="url(#clipPath20)" fill="none" text-rendering="optimizeLegibility" x1="102" x2="102" y1="71" y2="111"/>
<text x="109" y="91" clip-path="url(#clipPath21)" text-rendering="optimizeLegibility" stroke="none" xml:space="preserve">OnRed_Yellow</text>
<line clip-path="url(#clipPath22)" fill="none" text-rendering="optimizeLegibility" x1="97" x2="102" y1="96" y2="111"/>
<line clip-path="url(#clipPath22)" fill="none" text-rendering="optimizeLegibility" x1="102" x2="107" y1="111" y2="96"/>
<line clip-path="url(#clipPath20)" fill="none" text-rendering="optimizeLegibility" x1="221" x2="122" y1="54" y2="54"/>
<text x="168" y="53" clip-path="url(#clipPath23)" text-rendering="optimizeLegibility" stroke="none" xml:space="preserve">OnRed</text>
<line clip-path="url(#clipPath24)" fill="none" text-rendering="optimizeLegibility" x1="137" x2="122" y1="49" y2="54"/>
<line clip-path="url(#clipPath24)" fill="none" text-rendering="optimizeLegibility" x1="122" x2="137" y1="54" y2="59"/>
<line clip-path="url(#clipPath20)" fill="none" text-rendering="optimizeLegibility" x1="237" x2="237" y1="108" y2="72"/>
<text x="246" y="98" clip-path="url(#clipPath25)" text-rendering="optimizeLegibility" stroke="none" xml:space="preserve">OnYellow</text>
<line clip-path="url(#clipPath26)" fill="none" text-rendering="optimizeLegibility" x1="242" x2="237" y1="87" y2="72"/>
<line clip-path="url(#clipPath26)" fill="none" text-rendering="optimizeLegibility" x1="237" x2="232" y1="72" y2="87"/>
<line clip-path="url(#clipPath20)" fill="none" text-rendering="optimizeLegibility" x1="40" x2="82" y1="51" y2="51"/>
<text x="61" y="57" clip-path="url(#clipPath27)" text-rendering="optimizeLegibility" stroke="none" xml:space="preserve"> </text>
<line clip-path="url(#clipPath28)" fill="none" text-rendering="optimizeLegibility" x1="67" x2="82" y1="56" y2="51"/>
<line clip-path="url(#clipPath28)" fill="none" text-rendering="optimizeLegibility" x1="82" x2="67" y1="51" y2="46"/>
<line clip-path="url(#clipPath20)" fill="none" text-rendering="optimizeLegibility" x1="135" x2="222" y1="133" y2="133"/>
<text x="154" y="129" clip-path="url(#clipPath29)" text-rendering="optimizeLegibility" stroke="none" xml:space="preserve">OnGreen</text>
<line clip-path="url(#clipPath30)" fill="none" text-rendering="optimizeLegibility" x1="207" x2="222" y1="138" y2="133"/>
<line clip-path="url(#clipPath30)" fill="none" text-rendering="optimizeLegibility" x1="222" x2="207" y1="133" y2="128"/>
<line clip-path="url(#clipPath20)" fill="none" text-rendering="optimizeLegibility" x1="40" x2="82" y1="51" y2="51"/>
<text x="61" y="57" clip-path="url(#clipPath27)" text-rendering="optimizeLegibility" stroke="none" xml:space="preserve"> </text>
<line clip-path="url(#clipPath28)" fill="none" text-rendering="optimizeLegibility" x1="67" x2="82" y1="56" y2="51"/>
<line clip-path="url(#clipPath28)" fill="none" text-rendering="optimizeLegibility" x1="82" x2="67" y1="51" y2="46"/>
<line clip-path="url(#clipPath20)" fill="none" text-rendering="optimizeLegibility" x1="102" x2="102" y1="71" y2="111"/>
<text x="109" y="91" clip-path="url(#clipPath21)" text-rendering="optimizeLegibility" stroke="none" xml:space="preserve">OnRed_Yellow</text>
<line clip-path="url(#clipPath22)" fill="none" text-rendering="optimizeLegibility" x1="97" x2="102" y1="96" y2="111"/>
<line clip-path="url(#clipPath22)" fill="none" text-rendering="optimizeLegibility" x1="102" x2="107" y1="111" y2="96"/>
<line clip-path="url(#clipPath20)" fill="none" text-rendering="optimizeLegibility" x1="135" x2="222" y1="133" y2="133"/>
<text x="154" y="129" clip-path="url(#clipPath29)" text-rendering="optimizeLegibility" stroke="none" xml:space="preserve">OnGreen</text>
<line clip-path="url(#clipPath30)" fill="none" text-rendering="optimizeLegibility" x1="207" x2="222" y1="138" y2="133"/>
<line clip-path="url(#clipPath30)" fill="none" text-rendering="optimizeLegibility" x1="222" x2="207" y1="133" y2="128"/>
<line clip-path="url(#clipPath20)" fill="none" text-rendering="optimizeLegibility" x1="237" x2="237" y1="108" y2="72"/>
<text x="246" y="98" clip-path="url(#clipPath25)" text-rendering="optimizeLegibility" stroke="none" xml:space="preserve">OnYellow</text>
<line clip-path="url(#clipPath26)" fill="none" text-rendering="optimizeLegibility" x1="242" x2="237" y1="87" y2="72"/>
<line clip-path="url(#clipPath26)" fill="none" text-rendering="optimizeLegibility" x1="237" x2="232" y1="72" y2="87"/>
<line clip-path="url(#clipPath20)" fill="none" text-rendering="optimizeLegibility" x1="221" x2="122" y1="54" y2="54"/>
<text x="168" y="53" clip-path="url(#clipPath23)" text-rendering="optimizeLegibility" stroke="none" xml:space="preserve">OnRed</text>
<line clip-path="url(#clipPath24)" fill="none" text-rendering="optimizeLegibility" x1="137" x2="122" y1="49" y2="54"/>
<line clip-path="url(#clipPath24)" fill="none" text-rendering="optimizeLegibility" x1="122" x2="137" y1="54" y2="59"/>
</g>
</g>
</svg>
