<?xml version="1.0" encoding="UTF-8"?><svg xmlns="http://www.w3.org/2000/svg" xmlns:xlink="http://www.w3.org/1999/xlink" stroke-dasharray="none" shape-rendering="auto" font-family="'Dialog'" width="317" text-rendering="auto" fill-opacity="1" contentScriptType="text/ecmascript" color-interpolation="auto" color-rendering="auto" preserveAspectRatio="xMidYMid meet" font-size="12" viewBox="0 0 317 132" fill="black" stroke="black" image-rendering="auto" stroke-miterlimit="10" zoomAndPan="magnify" version="1.0" stroke-linecap="square" stroke-linejoin="miter" contentStyleType="text/css" font-style="normal" height="132" stroke-width="1" stroke-dashoffset="0" font-weight="normal" stroke-opacity="1">
<!--Generated by the Batik Graphics2D SVG Generator-->
<defs id="genericDefs"/>
<g>
<defs id="defs1">
<linearGradient x1="10" x2="10" y1="31" gradientUnits="userSpaceOnUse" y2="94" xlink:type="simple" xlink:actuate="onLoad" id="linearGradient1" xlink:show="other" spreadMethod="pad">
<stop stop-opacity="1" stop-color="white" offset="0%"/>
<stop stop-opacity="1" stop-color="white" offset="100%"/>
</linearGradient>
<linearGradient x1="207" x2="207" y1="27" gradientUnits="userSpaceOnUse" y2="90" xlink:type="simple" xlink:actuate="onLoad" id="linearGradient2" xlink:show="other" spreadMethod="pad">
<stop stop-opacity="1" stop-color="white" offset="0%"/>
<stop stop-opacity="1" stop-color="white" offset="100%"/>
</linearGradient>
<clipPath clipPathUnits="userSpaceOnUse" id="clipPath1">
<path d="M10 31 L10 93 L109 93 L109 31 Z"/>
</clipPath>
<clipPath clipPathUnits="userSpaceOnUse" id="clipPath2">
<path d="M29 54 L93 54 L93 71 L29 71 L29 54 Z"/>
</clipPath>
<clipPath clipPathUnits="userSpaceOnUse" id="clipPath3">
<path d="M9 30 L111 30 L111 95 L9 95 L9 30 Z"/>
</clipPath>
<clipPath clipPathUnits="userSpaceOnUse" id="clipPath4">
<path d="M207 27 L207 89 L306 89 L306 27 Z"/>
</clipPath>
<clipPath clipPathUnits="userSpaceOnUse" id="clipPath5">
<path d="M226 50 L290 50 L290 67 L226 67 L226 50 Z"/>
</clipPath>
<clipPath clipPathUnits="userSpaceOnUse" id="clipPath6">
<path d="M206 26 L308 26 L308 91 L206 91 L206 26 Z"/>
</clipPath>
<clipPath clipPathUnits="userSpaceOnUse" id="clipPath7">
<path d="M-1 -1 L318 -1 L318 133 L-1 133 L-1 -1 Z"/>
</clipPath>
<clipPath clipPathUnits="userSpaceOnUse" id="clipPath8">
<path d="M119 30 L180 30 L180 47 L119 47 L119 30 Z"/>
</clipPath>
<clipPath clipPathUnits="userSpaceOnUse" id="clipPath9">
<path d="M187 24 L199 24 L199 41 L187 41 L187 24 Z"/>
</clipPath>
<clipPath clipPathUnits="userSpaceOnUse" id="clipPath10">
<path d="M109 45 L128 45 L128 56 L109 56 L109 45 Z"/>
</clipPath>
<clipPath clipPathUnits="userSpaceOnUse" id="clipPath11">
<path d="M188 43 L209 43 L209 58 L188 58 L188 43 Z"/>
</clipPath>
<clipPath clipPathUnits="userSpaceOnUse" id="clipPath12">
<path d="M124 85 L190 85 L190 102 L124 102 L124 85 Z"/>
</clipPath>
<clipPath clipPathUnits="userSpaceOnUse" id="clipPath13">
<path d="M181 61 L193 61 L193 78 L181 78 L181 61 Z"/>
</clipPath>
<clipPath clipPathUnits="userSpaceOnUse" id="clipPath14">
<path d="M109 76 L128 76 L128 87 L109 87 L109 76 Z"/>
</clipPath>
<clipPath clipPathUnits="userSpaceOnUse" id="clipPath15">
<path d="M188 74 L209 74 L209 89 L188 89 L188 74 Z"/>
</clipPath>
</defs>
<g fill="url(#linearGradient1)" font-family="'Segoe UI'" stroke-linejoin="round" stroke="url(#linearGradient1)" stroke-width="0" stroke-miterlimit="0">
<rect x="10" y="31" clip-path="url(#clipPath1)" width="100" height="63" stroke="none"/>
<text x="30" y="68" clip-path="url(#clipPath2)" fill="black" stroke="none" xml:space="preserve">Intersection</text>
</g>
<g stroke-width="1.1" font-family="'Segoe UI'" stroke-linecap="butt">
<rect x="10" y="31" clip-path="url(#clipPath3)" fill="none" width="99" rx="0" ry="0" height="62"/>
<rect x="207" y="27" clip-path="url(#clipPath4)" fill="url(#linearGradient2)" width="100" height="63" stroke="none"/>
<text xml:space="preserve" x="227" y="64" clip-path="url(#clipPath5)" stroke="none">TrafficLight</text>
<rect x="207" y="27" clip-path="url(#clipPath6)" fill="none" width="99" rx="0" ry="0" height="62"/>
<line clip-path="url(#clipPath7)" fill="none" text-rendering="optimizeLegibility" x1="110" x2="207" y1="50" y2="50"/>
<text x="120" y="44" clip-path="url(#clipPath8)" text-rendering="optimizeLegibility" stroke="none" xml:space="preserve"> + highway</text>
<text x="188" y="38" clip-path="url(#clipPath9)" text-rendering="optimizeLegibility" stroke="none" xml:space="preserve"> 1</text>
<polygon fill="white" text-rendering="optimizeLegibility" clip-path="url(#clipPath10)" points=" 110 50 118 46 126 50 118 54" stroke="none"/>
<polygon text-rendering="optimizeLegibility" fill="none" clip-path="url(#clipPath10)" points=" 110 50 118 46 126 50 118 54"/>
<polygon text-rendering="optimizeLegibility" clip-path="url(#clipPath11)" points=" 207 51 205 53 203 53 201 51 201 50 189 56 201 50 189 44 201 50 201 49 203 47 205 47 207 49" stroke="none"/>
<polygon text-rendering="optimizeLegibility" fill="none" clip-path="url(#clipPath11)" points=" 207 51 205 53 203 53 201 51 201 50 189 56 201 50 189 44 201 50 201 49 203 47 205 47 207 49"/>
<line clip-path="url(#clipPath7)" fill="none" text-rendering="optimizeLegibility" x1="110" x2="207" y1="81" y2="81"/>
<text x="125" y="99" clip-path="url(#clipPath12)" text-rendering="optimizeLegibility" stroke="none" xml:space="preserve"> + farmroad</text>
<text x="182" y="75" clip-path="url(#clipPath13)" text-rendering="optimizeLegibility" stroke="none" xml:space="preserve"> 1</text>
<polygon fill="white" text-rendering="optimizeLegibility" clip-path="url(#clipPath14)" points=" 110 81 118 77 126 81 118 85" stroke="none"/>
<polygon text-rendering="optimizeLegibility" fill="none" clip-path="url(#clipPath14)" points=" 110 81 118 77 126 81 118 85"/>
<polygon text-rendering="optimizeLegibility" clip-path="url(#clipPath15)" points=" 207 82 205 84 203 84 201 82 201 81 189 87 201 81 189 75 201 81 201 80 203 78 205 78 207 80" stroke="none"/>
<polygon text-rendering="optimizeLegibility" fill="none" clip-path="url(#clipPath15)" points=" 207 82 205 84 203 84 201 82 201 81 189 87 201 81 189 75 201 81 201 80 203 78 205 78 207 80"/>
</g>
</g>
</svg>
